<svg width="170" height="90" viewBox="0 0 170 90" fill="none" xmlns="http://www.w3.org/2000/svg"><rect x=".5" y=".5" width="169" height="89" rx="3.5" stroke="#afb1b8"/><path d="M57.3993 37.3306H57.402C59.4004 37.3306 60.9982 38.906 60.9982 40.8223V40.8249C60.9982 42.7412 59.4004 44.3167 57.402 44.3167H57.3993C55.4008 44.3167 53.803 42.7412 53.803 40.8249V40.8223C53.803 38.906 55.4008 37.3306 57.3993 37.3306z" fill="#afb1b8" stroke="#afb1b8"/><path d="M64.8671 51.8073C64.6997 51.8327 64.5512 51.8541 64.4232 51.872V35.555C64.4295 32.6287 65.6252 29.8214 67.753 27.7483 69.881 25.675 72.768 24.5056 75.7826 24.5 78.7962 24.5069 81.6819 25.6769 83.8088 27.7501 85.9356 29.8231 87.1306 32.6299 87.1367 35.5555V35.557C87.1367 35.5571 87.1367 35.5571 87.1367 35.5571 87.1354 42.3802 81.4877 46.4822 75.5892 48.9022 72.6624 50.1029 69.7301 50.8641 67.5257 51.3251 66.4246 51.5553 65.5076 51.7102 64.8671 51.8073z" fill="#afb1b8" stroke="#afb1b8"/><path d="M52.7491 60.541C52.4036 60.4762 52.0725 60.3446 51.7762 60.1517 51.3389 59.8669 50.9962 59.4609 50.7932 58.9835 50.5902 58.5059 50.5369 57.9795 50.6406 57.4716 50.7442 56.9638 50.9997 56.4991 51.3727 56.1356 51.7455 55.7723 52.219 55.5263 52.7326 55.4267 53.2461 55.3272 53.7785 55.3782 54.263 55.5737 54.7476 55.7693 55.1638 56.1014 55.4577 56.53 55.7516 56.9587 55.9093 57.4641 55.9093 57.9823M52.7491 60.541V60.5953h.5C53.5976 60.5953 53.9428 60.5283 54.2653 60.3978 54.5877 60.2673 54.8814 60.0757 55.1291 59.8334 55.3769 59.591 55.5738 59.3027 55.7079 58.9846 55.8419 58.667 55.9104 58.3264 55.9093 57.9823M52.7491 60.541C52.9133 60.5718 53.0806 60.5874 53.2491 60.5874V60.0953L52.7491 60.541zM55.9093 57.9823H55.4095L55.9093 57.9804C55.9093 57.981 55.9093 57.9816 55.9093 57.9823zM58.7262 63.3044C57.2752 64.7184 55.3065 65.5177 53.2491 65.5239 51.1914 65.5177 49.2222 64.718 47.7712 63.3035 46.3204 61.8892 45.5054 59.9757 45.4999 57.9816 45.5003 53.3364 49.344 50.5187 53.4389 48.8385 55.464 48.0076 57.4947 47.4802 59.0229 47.1605 59.7859 47.0009 60.4211 46.8936 60.8645 46.8264 60.9113 46.8193 60.9559 46.8126 60.9984 46.8064V57.984C60.9922 59.9777 60.1769 61.8906 58.7262 63.3044z" fill="#afb1b8" stroke="#afb1b8"/><path d="M70.0891 58.7812H68.4016V60.5244H67.5227V56.2588H70.3v.7119H68.4016V58.0723h1.6875V58.7812zM74.3137 58.4883C74.3137 58.9082 74.2395 59.2764 74.091 59.5928 73.9426 59.9092 73.7297 60.1533 73.4524 60.3252 73.177 60.4971 72.8606 60.583 72.5031 60.583 72.1496 60.583 71.8342 60.498 71.5569 60.3281 71.2795 60.1582 71.0647 59.916 70.9123 59.6016 70.76 59.2852 70.6828 58.9219 70.6809 58.5117V58.3008C70.6809 57.8809 70.7561 57.5117 70.9065 57.1934 71.0588 56.873 71.2727 56.6279 71.5481 56.458 71.8254 56.2861 72.1418 56.2002 72.4973 56.2002 72.8528 56.2002 73.1682 56.2861 73.4436 56.458 73.7209 56.6279 73.9348 56.873 74.0852 57.1934 74.2375 57.5117 74.3137 57.8799 74.3137 58.2979V58.4883zM73.4231 58.2949C73.4231 57.8477 73.343 57.5078 73.1828 57.2754 73.0227 57.043 72.7942 56.9268 72.4973 56.9268 72.2024 56.9268 71.9748 57.042 71.8147 57.2725 71.6545 57.501 71.5735 57.8369 71.5715 58.2803V58.4883C71.5715 58.9238 71.6516 59.2617 71.8117 59.502 71.9719 59.7422 72.2024 59.8623 72.5031 59.8623 72.7981 59.8623 73.0246 59.7471 73.1828 59.5166 73.341 59.2842 73.4211 58.9463 73.4231 58.5029V58.2949zM77.1643 59.4053C77.1643 59.2393 77.1057 59.1123 76.9885 59.0244 76.8713 58.9346 76.6604 58.8408 76.3557 58.7432 76.051 58.6436 75.8098 58.5459 75.632 58.4502 75.1477 58.1885 74.9055 57.8359 74.9055 57.3926 74.9055 57.1621 74.9699 56.957 75.0988 56.7773 75.2297 56.5957 75.4162 56.4541 75.6584 56.3525 75.9026 56.251 76.176 56.2002 76.4787 56.2002 76.7834 56.2002 77.0549 56.2559 77.2932 56.3672 77.5315 56.4766 77.716 56.6318 77.8469 56.833 77.9797 57.0342 78.0461 57.2627 78.0461 57.5186H77.1672C77.1672 57.3232 77.1057 57.1719 76.9826 57.0645 76.8596 56.9551 76.6867 56.9004 76.4641 56.9004 76.2492 56.9004 76.0822 56.9463 75.9631 57.0381 75.844 57.1279 75.7844 57.2471 75.7844 57.3955 75.7844 57.5342 75.8537 57.6504 75.9924 57.7441 76.133 57.8379 76.3391 57.9258 76.6106 58.0078 77.1106 58.1582 77.4748 58.3447 77.7033 58.5674 77.9319 58.79 78.0461 59.0674 78.0461 59.3994 78.0461 59.7686 77.9065 60.0586 77.6272 60.2695 77.3479 60.4785 76.9719 60.583 76.4992 60.583 76.1711 60.583 75.8723 60.5234 75.6028 60.4043 75.3332 60.2832 75.1272 60.1182 74.9846 59.9092 74.844 59.7002 74.7737 59.458 74.7737 59.1826H75.6555C75.6555 59.6533 75.9367 59.8887 76.4992 59.8887 76.7082 59.8887 76.8713 59.8467 76.9885 59.7627 77.1057 59.6768 77.1643 59.5576 77.1643 59.4053zM81.8547 56.9707H80.5481V60.5244H79.6692V56.9707H78.3801v-.7119H81.8547v.7119zM84.925 58.6758H83.2375V59.8184H85.218V60.5244H82.3586V56.2588H85.2121v.7119H83.2375V57.9873H84.925V58.6758zM87.3127 58.9629H86.6125V60.5244H85.7336V56.2588H87.3186C87.8225 56.2588 88.2112 56.3711 88.4846 56.5957 88.758 56.8203 88.8947 57.1377 88.8947 57.5479 88.8947 57.8389 88.8313 58.082 88.7043 58.2773 88.5793 58.4707 88.3889 58.625 88.133 58.7402L89.0559 60.4834V60.5244H88.1125L87.3127 58.9629zM86.6125 58.251H87.3215C87.5422 58.251 87.7131 58.1953 87.8342 58.084 87.9553 57.9707 88.0158 57.8154 88.0158 57.6182 88.0158 57.417 87.9582 57.2588 87.843 57.1436 87.7297 57.0283 87.5549 56.9707 87.3186 56.9707H86.6125V58.251zM91.9387 59.0215V60.5244H91.0598V56.2588H92.7238C93.0442 56.2588 93.3254 56.3174 93.5676 56.4346 93.8117 56.5518 93.9992 56.7188 94.1301 56.9355 94.261 57.1504 94.3264 57.3955 94.3264 57.6709 94.3264 58.0889 94.1828 58.4189 93.8957 58.6611 93.6106 58.9014 93.2151 59.0215 92.7092 59.0215H91.9387zm0-.7119H92.7238C92.9563 58.3096 93.133 58.2549 93.2541 58.1455 93.3772 58.0361 93.4387 57.8799 93.4387 57.6768 93.4387 57.4678 93.3772 57.2988 93.2541 57.1699 93.1311 57.041 92.9612 56.9746 92.7444 56.9707H91.9387V58.3096zM97.4992 58.6758H95.8117V59.8184H97.7922V60.5244H94.9328V56.2588H97.7863v.7119H95.8117V57.9873h1.6875V58.6758zM101.577 56.9707H100.271V60.5244H99.3918V56.9707H98.1028v-.7119H101.577v.7119zM104.648 58.6758H102.96V59.8184H104.941V60.5244H102.081V56.2588H104.935v.7119H102.96V57.9873H104.648V58.6758zM107.035 58.9629H106.335V60.5244H105.456V56.2588H107.041C107.545 56.2588 107.934 56.3711 108.207 56.5957 108.481 56.8203 108.617 57.1377 108.617 57.5479 108.617 57.8389 108.554 58.082 108.427 58.2773 108.302 58.4707 108.112 58.625 107.856 58.7402L108.779 60.4834V60.5244H107.835L107.035 58.9629zM106.335 58.251H107.044C107.265 58.251 107.436 58.1953 107.557 58.084 107.678 57.9707 107.738 57.8154 107.738 57.6182 107.738 57.417 107.681 57.2588 107.566 57.1436 107.452 57.0283 107.278 56.9707 107.041 56.9707H106.335V58.251zM111.5 59.4053C111.5 59.2393 111.442 59.1123 111.324 59.0244 111.207 58.9346 110.996 58.8408 110.692 58.7432 110.387 58.6436 110.146 58.5459 109.968 58.4502 109.484 58.1885 109.241 57.8359 109.241 57.3926 109.241 57.1621 109.306 56.957 109.435 56.7773 109.566 56.5957 109.752 56.4541 109.994 56.3525 110.238 56.251 110.512 56.2002 110.815 56.2002 111.119 56.2002 111.391 56.2559 111.629 56.3672 111.867 56.4766 112.052 56.6318 112.183 56.833 112.316 57.0342 112.382 57.2627 112.382 57.5186H111.503C111.503 57.3232 111.442 57.1719 111.319 57.0645 111.196 56.9551 111.023 56.9004 110.8 56.9004 110.585 56.9004 110.418 56.9463 110.299 57.0381 110.18 57.1279 110.12 57.2471 110.12 57.3955 110.12 57.5342 110.19 57.6504 110.328 57.7441 110.469 57.8379 110.675 57.9258 110.947 58.0078 111.447 58.1582 111.811 58.3447 112.039 58.5674 112.268 58.79 112.382 59.0674 112.382 59.3994 112.382 59.7686 112.242 60.0586 111.963 60.2695 111.684 60.4785 111.308 60.583 110.835 60.583 110.507 60.583 110.208 60.5234 109.939 60.4043 109.669 60.2832 109.463 60.1182 109.321 59.9092 109.18 59.7002 109.11 59.458 109.11 59.1826H109.991C109.991 59.6533 110.273 59.8887 110.835 59.8887 111.044 59.8887 111.207 59.8467 111.324 59.7627 111.442 59.6768 111.5 59.5576 111.5 59.4053z" fill="#afb1b8"/><path d="M70.0891 58.7812v1h1v-1h-1zm-1.6875.0v-1h-1v1h1zM68.4016 60.5244v1h1v-1h-1zM67.5227 60.5244h-1v1h1v-1zM67.5227 56.2588v-1h-1v1h1zM70.3 56.2588h1v-1h-1v1zm0 .7119v1h1v-1h-1zM68.4016 56.9707v-1h-1v1h1zM68.4016 58.0723h-1v1h1v-1zm1.6875.0h1v-1h-1v1zM70.0891 57.7812H68.4016v2h1.6875v-2zm-2.6875 1V60.5244h2V58.7812h-2zM68.4016 59.5244H67.5227v2H68.4016v-2zM68.5227 60.5244V56.2588h-2V60.5244h2zM67.5227 57.2588H70.3v-2H67.5227v2zM69.3 56.2588v.7119h2v-.7119h-2zm1-.2881H68.4016v2H70.3v-2zM67.4016 56.9707V58.0723h2V56.9707h-2zM68.4016 59.0723h1.6875v-2H68.4016v2zm.6875-1V58.7812h2V58.0723h-2zM73.4524 60.3252 72.9256 59.4752 72.9229 59.4769 73.4524 60.3252zM70.9123 59.6016 70.0113 60.0354 70.0124 60.0376 70.9123 59.6016zM70.6809 58.5117h-1V58.5165L70.6809 58.5117zM70.9065 57.1934 70.0034 56.7639 70.0023 56.7662 70.9065 57.1934zM71.5481 56.458 72.0732 57.309 72.0748 57.308 71.5481 56.458zM73.4436 56.458 72.9141 57.3064 72.9212 57.3107 73.4436 56.458zM74.0852 57.1934 73.18 57.6184 73.1831 57.625 74.0852 57.1934zM71.8147 57.2725 72.6336 57.8464 72.6359 57.8431 71.8147 57.2725zM71.5715 58.2803 70.5715 58.2759V58.2803h1zm1.6113 1.2363L74.0073 60.0825 74.0095 60.0793 73.1828 59.5166zM73.4231 58.5029 74.4231 58.5073V58.5029h-1zM73.3137 58.4883C73.3137 58.7905 73.2605 59.0086 73.1857 59.1681L74.9964 60.0175C75.2184 59.5441 75.3137 59.0259 75.3137 58.4883h-2zM73.1857 59.1681C73.1135 59.3221 73.0264 59.4127 72.9256 59.4752L73.9791 61.1752C74.4331 60.8939 74.7717 60.4963 74.9964 60.0175L73.1857 59.1681zM72.9229 59.4769C72.8221 59.5397 72.6929 59.583 72.5031 59.583v2C73.0282 61.583 73.5318 61.4544 73.9818 61.1735L72.9229 59.4769zM72.5031 59.583C72.3174 59.583 72.1858 59.5407 72.0793 59.4754L71.0344 61.1808C71.4826 61.4554 71.9818 61.583 72.5031 61.583v-2zM72.0793 59.4754C71.9772 59.4129 71.8877 59.3212 71.8123 59.1656L70.0124 60.0376C70.2417 60.5108 70.5818 60.9035 71.0344 61.1808L72.0793 59.4754zM71.8133 59.1677C71.7354 59.0059 71.6822 58.7933 71.6809 58.507L69.6809 58.5165C69.6834 59.0504 69.7845 59.5644 70.0113 60.0354L71.8133 59.1677zM71.6809 58.5117V58.3008h-2V58.5117h2zM71.6809 58.3008C71.6809 58.0005 71.7343 57.782 71.8107 57.6205L70.0023 56.7662C69.7778 57.2414 69.6809 57.7613 69.6809 58.3008h2zM71.8095 57.6229C71.8874 57.4592 71.9774 57.3681 72.0732 57.309L71.023 55.607C70.568 55.8877 70.2302 56.2869 70.0034 56.7639L71.8095 57.6229zM72.0748 57.308C72.1799 57.2429 72.3107 57.2002 72.4973 57.2002v-2C71.9729 55.2002 71.4709 55.3294 71.0213 55.608L72.0748 57.308zM72.4973 57.2002C72.684 57.2002 72.8125 57.2429 72.9141 57.3063L73.973 55.6097C73.5239 55.3294 73.0215 55.2002 72.4973 55.2002v2zM72.9212 57.3107C73.0172 57.3695 73.105 57.4587 73.18 57.6184L74.9904 56.7684C74.7645 56.2874 74.4246 55.8863 73.966 55.6053L72.9212 57.3107zM73.1831 57.625C73.2602 57.786 73.3137 58.002 73.3137 58.2979h2C75.3137 57.7578 75.2149 57.2374 74.9872 56.7617L73.1831 57.625zM73.3137 58.2979V58.4883h2V58.2979h-2zM74.4231 58.2949C74.4231 57.7541 74.3308 57.1789 74.0063 56.708L72.3594 57.8428C72.3544 57.8355 72.3716 57.8573 72.3897 57.9339 72.4079 58.0111 72.4231 58.1281 72.4231 58.2949h2zM74.0063 56.708C73.6483 56.1885 73.1029 55.9268 72.4973 55.9268v2C72.5131 57.9268 72.4849 57.9291 72.438 57.9053 72.4162 57.8942 72.3972 57.8807 72.3822 57.8673 72.3675 57.8541 72.3605 57.8444 72.3594 57.8428L74.0063 56.708zM72.4973 55.9268C71.8946 55.9268 71.3515 56.1866 70.9935 56.7018L72.6359 57.8431C72.6347 57.8448 72.6276 57.8545 72.6129 57.8676 72.598 57.8809 72.579 57.8943 72.5572 57.9053 72.5106 57.9289 72.4822 57.9268 72.4973 57.9268v-2zM70.9958 56.6985C70.6681 57.166 70.5739 57.7392 70.5715 58.2759L72.5715 58.2847C72.5722 58.1199 72.5878 58.0052 72.6059 57.9303 72.6238 57.8561 72.6402 57.8369 72.6336 57.8464L70.9958 56.6985zM70.5715 58.2803V58.4883h2V58.2803h-2zM70.5715 58.4883C70.5715 59.0273 70.6675 59.5883 70.9797 60.0567L72.6438 58.9473C72.6357 58.9351 72.5715 58.8204 72.5715 58.4883h-2zM70.9797 60.0567C71.3344 60.5887 71.8847 60.8623 72.5031 60.8623v-2C72.4883 58.8623 72.5185 58.8602 72.5669 58.8854 72.5894 58.8971 72.6084 58.9111 72.6231 58.9246 72.6374 58.9377 72.6436 58.947 72.6438 58.9473L70.9797 60.0567zM72.5031 60.8623C73.1061 60.8623 73.6507 60.602 74.0073 60.0825L72.3584 58.9507C72.3601 58.9482 72.3677 58.9378 72.383 58.924 72.3987 58.9099 72.4184 58.896 72.4409 58.8845 72.489 58.8601 72.5183 58.8623 72.5031 58.8623v2zM74.0095 60.0793C74.3274 59.6123 74.4207 59.0441 74.4231 58.5073L72.4231 58.4985C72.4223 58.6639 72.4069 58.7805 72.3885 58.8583 72.3702 58.9355 72.3526 58.9591 72.3562 58.9539L74.0095 60.0793zM74.4231 58.5029V58.2949h-2V58.5029h2zM76.9885 59.0244 76.38 59.8181 76.3885 59.8244 76.9885 59.0244zM76.3557 58.7432 76.0449 59.6937 76.0505 59.6954 76.3557 58.7432zM75.632 58.4502 75.1567 59.33 75.1579 59.3307 75.632 58.4502zM75.0988 56.7773 74.2875 56.1928 74.2863 56.1944 75.0988 56.7773zM75.6584 56.3525 75.2743 55.4292 75.2717 55.4303 75.6584 56.3525zM77.2932 56.3672 76.8699 57.2732 76.876 57.276 77.2932 56.3672zM77.8469 56.833 77.0086 57.3783 77.0124 57.384 77.8469 56.833zM78.0461 57.5186v1h1v-1h-1zM77.1672 57.5186h-1v1h1v-1zM76.9826 57.0645 76.3182 57.8119 76.325 57.8178 76.9826 57.0645zM75.9631 57.0381 76.5652 57.8366 76.5734 57.8302 75.9631 57.0381zM75.9924 57.7441 75.4323 58.5726 75.4377 58.5762 75.9924 57.7441zM76.6106 58.0078 76.3213 58.9651 76.3225 58.9654 76.6106 58.0078zM77.6272 60.2695 78.2263 61.0702 78.2298 61.0675 77.6272 60.2695zM75.6028 60.4043 75.1929 61.3165 75.1985 61.3189 75.6028 60.4043zM74.9846 59.9092 74.1549 60.4675 74.1585 60.4728 74.9846 59.9092zM74.7737 59.1826v-1h-1v1h1zM75.6555 59.1826h1v-1h-1v1zM76.9885 59.7627 77.571 60.5756 77.5799 60.5691 76.9885 59.7627zM78.1643 59.4053C78.1643 58.9725 77.9936 58.5282 77.5885 58.2244L76.3885 59.8244C76.321 59.7738 76.2559 59.6989 76.2124 59.6046 76.1707 59.5144 76.1643 59.4402 76.1643 59.4053h2zM77.5969 58.2308C77.3326 58.0281 76.9776 57.8924 76.6609 57.7909L76.0505 59.6954C76.1805 59.7371 76.2735 59.7726 76.3363 59.8005 76.4052 59.8312 76.4086 59.8399 76.3801 59.818L77.5969 58.2308zM76.6664 57.7927C76.3894 57.7021 76.2104 57.6259 76.1061 57.5697L75.1579 59.3307C75.4091 59.4659 75.7125 59.585 76.0449 59.6937L76.6664 57.7927zM76.1074 57.5704C75.9659 57.4939 75.9206 57.4367 75.9114 57.4233 75.9089 57.4197 75.9079 57.4177 75.9078 57.4173 75.9076 57.417 75.9076 57.417 75.9076 57.417 75.9076 57.4169 75.9071 57.4155 75.9066 57.4121 75.9061 57.4087 75.9055 57.4024 75.9055 57.3926h-2C73.9055 58.2976 74.4415 58.9435 75.1567 59.33L76.1074 57.5704zM75.9055 57.3926C75.9055 57.3817 75.9062 57.3746 75.9068 57.3709 75.9071 57.3689 75.9074 57.3676 75.9075 57.3669 75.9077 57.3662 75.9078 57.3658 75.9078 57.3657 75.9078 57.3657 75.9078 57.3658 75.9078 57.3659 75.9077 57.366 75.9077 57.3661 75.9078 57.3659 75.9079 57.3657 75.9088 57.3639 75.9114 57.3603L74.2863 56.1944C74.0301 56.5515 73.9055 56.9624 73.9055 57.3926h2zM75.9102 57.3619C75.9159 57.354 75.9431 57.3175 76.0451 57.2747L75.2717 55.4303C74.8894 55.5907 74.5435 55.8374 74.2875 56.1928L75.9102 57.3619zM76.0425 57.2758C76.1486 57.2317 76.2889 57.2002 76.4787 57.2002v-2C76.0631 55.2002 75.6566 55.2702 75.2743 55.4292L76.0425 57.2758zM76.4787 57.2002C76.6602 57.2002 76.7836 57.2328 76.8699 57.2732L77.7165 55.4612C77.3262 55.2789 76.9066 55.2002 76.4787 55.2002v2zM76.876 57.276C76.9589 57.3141 76.9904 57.3502 77.0086 57.3783L78.6852 56.2877C78.4417 55.9134 78.1041 55.6391 77.7104 55.4584L76.876 57.276zM77.0124 57.384C77.0305 57.4114 77.0461 57.446 77.0461 57.5186h2C79.0461 57.0794 78.9289 56.6569 78.6814 56.2821L77.0124 57.384zM78.0461 56.5186H77.1672v2H78.0461v-2zM78.1672 57.5186C78.1672 57.0964 78.0235 56.6457 77.6403 56.3111L76.325 57.8178C76.2687 57.7686 76.2228 57.7042 76.1947 57.6351 76.1683 57.5703 76.1672 57.5253 76.1672 57.5186h2zM77.647 56.317C77.2848 55.9951 76.8445 55.9004 76.4641 55.9004v2C76.4955 57.9004 76.4895 57.9045 76.4591 57.8948 76.4251 57.8841 76.372 57.8597 76.3183 57.8119L77.647 56.317zM76.4641 55.9004C76.1203 55.9004 75.7078 55.9724 75.3528 56.2459L76.5734 57.8302C76.5158 57.8746 76.4656 57.8928 76.4427 57.8991 76.4221 57.9047 76.4257 57.9004 76.4641 57.9004v-2zM75.361 56.2397C74.9929 56.5173 74.7844 56.9313 74.7844 57.3955h2C76.7844 57.4586 76.7708 57.5475 76.7235 57.642 76.6763 57.7364 76.6139 57.7998 76.5652 57.8365L75.361 56.2397zM74.7844 57.3955C74.7844 57.9378 75.0837 58.3369 75.4323 58.5726L76.5525 56.9157C76.5766 56.932 76.639 56.9802 76.6952 57.0743 76.7553 57.1751 76.7844 57.2891 76.7844 57.3955h-2zM75.4377 58.5762C75.6969 58.749 76.0102 58.8711 76.3213 58.9651L76.8998 57.0506C76.6679 56.9805 76.5691 56.9268 76.5471 56.9121L75.4377 58.5762zM76.3225 58.9654C76.7554 59.0956 76.9432 59.2229 77.0055 59.2836L78.4012 57.8512C78.0065 57.4665 77.4657 57.2208 76.8986 57.0502L76.3225 58.9654zM77.0055 59.2836C77.0284 59.3059 77.0339 59.3186 77.0358 59.3233 77.0381 59.3288 77.0461 59.3501 77.0461 59.3994h2C79.0461 58.81 78.8315 58.2704 78.4012 57.8512L77.0055 59.2836zM77.0461 59.3994C77.0461 59.4286 77.0434 59.4461 77.0416 59.4542 77.04 59.4619 77.039 59.4629 77.0404 59.46 77.0418 59.4569 77.0434 59.4549 77.0433 59.455 77.043 59.4554 77.0381 59.4613 77.0245 59.4715L78.2298 61.0675C78.7749 60.6559 79.0461 60.0621 79.0461 59.3994h-2zM77.0281 59.4689C76.9738 59.5095 76.8316 59.583 76.4992 59.583v2C77.1122 61.583 77.7219 61.4476 78.2263 61.0702L77.0281 59.4689zM76.4992 59.583C76.2945 59.583 76.1355 59.5464 76.007 59.4897L75.1985 61.3189C75.6091 61.5004 76.0477 61.583 76.4992 61.583v-2zM76.0126 59.4921C75.8826 59.4337 75.8329 59.3782 75.8107 59.3456L74.1585 60.4728C74.4214 60.8581 74.7838 61.1327 75.1929 61.3165L76.0126 59.4921zM75.8142 59.3509C75.795 59.3223 75.7737 59.2785 75.7737 59.1826h-2C73.7737 59.6375 73.8929 60.0781 74.1549 60.4675L75.8142 59.3509zM74.7737 60.1826H75.6555v-2H74.7737v2zM74.6555 59.1826C74.6555 59.6235 74.7957 60.1201 75.2247 60.4791 75.6195 60.8095 76.103 60.8887 76.4992 60.8887v-2C76.4251 58.8887 76.3961 58.8806 76.3988 58.8813 76.404 58.8828 76.4504 58.8969 76.5082 58.9452 76.5697 58.9968 76.6133 59.0614 76.6372 59.1215 76.6587 59.1754 76.6555 59.2028 76.6555 59.1826h-2zM76.4992 60.8887C76.8272 60.8887 77.2231 60.8248 77.571 60.5755L76.406 58.9499C76.4632 58.9088 76.5105 58.8935 76.5289 58.8888 76.5456 58.8845 76.5389 58.8887 76.4992 58.8887v2zM77.5799 60.5691C77.9682 60.2843 78.1643 59.8581 78.1643 59.4053h-2C76.1643 59.351 76.1754 59.2643 76.223 59.1676 76.2713 59.0692 76.3383 58.9994 76.3971 58.9563L77.5799 60.5691zM81.8547 56.9707v1h1v-1h-1zM80.5481 56.9707v-1h-1v1h1zM80.5481 60.5244v1h1v-1h-1zM79.6692 60.5244h-1v1h1v-1zM79.6692 56.9707h1v-1h-1v1zM78.3801 56.9707h-1v1h1v-1zm0-.7119v-1h-1v1h1zM81.8547 56.2588h1v-1h-1v1zm0-.2881H80.5481v2H81.8547v-2zM79.5481 56.9707V60.5244h2V56.9707h-2zM80.5481 59.5244H79.6692v2H80.5481v-2zM80.6692 60.5244V56.9707h-2V60.5244h2zM79.6692 55.9707H78.3801v2H79.6692v-2zM79.3801 56.9707v-.7119h-2v.7119h2zm-1 .2881H81.8547v-2H78.3801v2zM80.8547 56.2588v.7119h2v-.7119h-2zM84.925 58.6758v1h1v-1h-1zm-1.6875.0v-1h-1v1h1zM83.2375 59.8184h-1v1h1v-1zM85.218 59.8184h1v-1h-1v1zM85.218 60.5244v1h1v-1h-1zM82.3586 60.5244h-1v1h1v-1zM82.3586 56.2588v-1h-1v1h1zM85.2121 56.2588h1v-1h-1v1zm0 .7119v1h1v-1h-1zM83.2375 56.9707v-1h-1v1h1zM83.2375 57.9873h-1v1h1v-1zm1.6875.0h1v-1h-1v1zM84.925 57.6758H83.2375v2H84.925v-2zm-2.6875 1V59.8184h2V58.6758h-2zM83.2375 60.8184H85.218v-2H83.2375v2zM84.218 59.8184V60.5244h2V59.8184h-2zM85.218 59.5244H82.3586v2H85.218v-2zM83.3586 60.5244V56.2588h-2V60.5244h2zM82.3586 57.2588H85.2121v-2H82.3586v2zM84.2121 56.2588v.7119h2v-.7119h-2zm1-.2881H83.2375v2H85.2121v-2zM82.2375 56.9707V57.9873h2V56.9707h-2zM83.2375 58.9873H84.925v-2H83.2375v2zm.6875-1V58.6758h2V57.9873h-2zM87.3127 58.9629 88.2028 58.507 87.9241 57.9629H87.3127v1zM86.6125 58.9629v-1h-1v1h1zM86.6125 60.5244v1h1v-1h-1zM85.7336 60.5244h-1v1h1v-1zM85.7336 56.2588v-1h-1v1h1zM88.7043 58.2773 87.8659 57.7324 87.8645 57.7344 88.7043 58.2773zM88.133 58.7402 87.7224 57.8284 86.7505 58.2661 87.2492 59.2081 88.133 58.7402zM89.0559 60.4834h1V60.235L89.9397 60.0155 89.0559 60.4834zM89.0559 60.5244v1h1v-1h-1zM88.1125 60.5244 87.2225 60.9803 87.5012 61.5244h.6113v-1zM86.6125 58.251h-1v1h1v-1zM87.8342 58.084 88.511 58.8202 88.5174 58.8143 87.8342 58.084zM87.843 57.1436 87.1298 57.8446 87.1359 57.8507 87.843 57.1436zM86.6125 56.9707v-1h-1v1h1zM87.3127 57.9629H86.6125v2H87.3127v-2zM85.6125 58.9629V60.5244h2V58.9629h-2zM86.6125 59.5244H85.7336v2H86.6125v-2zM86.7336 60.5244V56.2588h-2V60.5244h2zM85.7336 57.2588H87.3186v-2H85.7336v2zM87.3186 57.2588C87.6872 57.2588 87.8177 57.3421 87.8498 57.3684L89.1193 55.823C88.6046 55.4001 87.9577 55.2588 87.3186 55.2588v2zM87.8498 57.3684C87.8663 57.382 87.8701 57.3893 87.8738 57.3978 87.8792 57.4105 87.8947 57.4538 87.8947 57.5479h2C89.8947 56.8917 89.6622 56.2689 89.1193 55.823L87.8498 57.3684zM87.8947 57.5479C87.8947 57.6212 87.8867 57.6686 87.8796 57.6959 87.8728 57.7219 87.8665 57.7314 87.8659 57.7324L89.5428 58.8223C89.7987 58.4286 89.8947 57.9841 89.8947 57.5479h-2zM87.8645 57.7344C87.8629 57.7369 87.8567 57.7461 87.8382 57.7611 87.8187 57.7769 87.7829 57.8012 87.7224 57.8284L88.5437 59.652C88.9365 59.4751 89.2937 59.2076 89.5441 58.8202L87.8645 57.7344zM87.2492 59.2081 88.1721 60.9513 89.9397 60.0155 89.0168 58.2723 87.2492 59.2081zM88.0559 60.4834V60.5244h2V60.4834h-2zM89.0559 59.5244H88.1125v2H89.0559v-2zM89.0026 60.0685 88.2028 58.507 86.4227 59.4188 87.2225 60.9803 89.0026 60.0685zM86.6125 59.251H87.3215v-2H86.6125v2zM87.3215 59.251C87.7057 59.251 88.1499 59.1521 88.511 58.8202L87.1574 57.3478C87.2119 57.2977 87.2674 57.2708 87.3055 57.2584 87.3398 57.2472 87.3497 57.251 87.3215 57.251v2zM88.5174 58.8143C88.8787 58.4762 89.0158 58.0353 89.0158 57.6182h-2C87.0158 57.6149 87.0164 57.5766 87.0388 57.5193 87.0625 57.4583 87.1018 57.3998 87.151 57.3537L88.5174 58.8143zM89.0158 57.6182C89.0158 57.2177 88.8948 56.7812 88.5501 56.4364L87.1359 57.8507C87.0868 57.8016 87.0524 57.7442 87.033 57.6908 87.0149 57.6412 87.0158 57.6122 87.0158 57.6182h2zM88.5561 56.4425C88.1827 56.0627 87.699 55.9707 87.3186 55.9707v2C87.359 57.9707 87.3515 57.9761 87.3139 57.9637 87.2712 57.9496 87.1995 57.9155 87.1299 57.8446L88.5561 56.4425zM87.3186 55.9707H86.6125v2H87.3186v-2zM85.6125 56.9707V58.251h2V56.9707h-2zM91.9387 59.0215v-1h-1v1h1zM91.9387 60.5244v1h1v-1h-1zM91.0598 60.5244h-1v1h1v-1zM91.0598 56.2588v-1h-1v1h1zM93.5676 56.4346 93.132 57.3347 93.1349 57.3361 93.5676 56.4346zM94.1301 56.9355 93.274 57.4523 93.276 57.4557 94.1301 56.9355zM93.8957 58.6611 94.54 59.4259 94.5405 59.4255 93.8957 58.6611zM91.9387 58.3096h-1v1h1v-1zM93.2541 58.1455 92.5897 57.3981 92.5838 57.4034 93.2541 58.1455zM92.7444 56.9707 92.7624 55.9709 92.7534 55.9707H92.7444v1zM91.9387 56.9707v-1h-1v1h1zM90.9387 59.0215V60.5244h2V59.0215h-2zM91.9387 59.5244H91.0598v2H91.9387v-2zM92.0598 60.5244V56.2588h-2V60.5244h2zM91.0598 57.2588H92.7238v-2H91.0598v2zM92.7238 57.2588C92.9218 57.2588 93.0491 57.2946 93.132 57.3347L94.0032 55.5344C93.6017 55.3402 93.1666 55.2588 92.7238 55.2588v2zM93.1349 57.3361C93.2162 57.3751 93.2508 57.414 93.274 57.4523L94.9862 56.4188C94.7476 56.0235 94.4073 55.7284 94.0003 55.533L93.1349 57.3361zM93.276 57.4557C93.3025 57.4992 93.3264 57.561 93.3264 57.6709h2C95.3264 57.23 95.2194 56.8016 94.9841 56.4154L93.276 57.4557zM93.3264 57.6709C93.3264 57.8316 93.2857 57.8675 93.2509 57.8968L94.5405 59.4255C95.08 58.9704 95.3264 58.3461 95.3264 57.6709h-2zM93.2514 57.8964C93.202 57.938 93.0635 58.0215 92.7092 58.0215v2C93.3666 60.0215 94.0192 59.8647 94.54 59.4259L93.2514 57.8964zM92.7092 58.0215H91.9387v2H92.7092v-2zM91.9387 59.3096H92.7238v-2H91.9387v2zM92.7238 59.3096C93.0995 59.3096 93.5545 59.2217 93.9244 58.8876L92.5838 57.4034C92.6448 57.3483 92.7033 57.3231 92.7352 57.3132 92.7634 57.3045 92.7643 57.3096 92.7238 57.3096v2zM93.9185 58.8929C94.3036 58.5506 94.4387 58.0933 94.4387 57.6768h-2C92.4387 57.6785 92.4384 57.6401 92.4621 57.5799 92.4877 57.5149 92.5315 57.4499 92.5898 57.3981L93.9185 58.8929zM94.4387 57.6768C94.4387 57.2581 94.3084 56.8261 93.9775 56.4794L92.5308 57.8604C92.496 57.824 92.469 57.7796 92.4529 57.7355 92.4378 57.6941 92.4387 57.6704 92.4387 57.6768h2zM93.9775 56.4794C93.6314 56.1169 93.1844 55.9785 92.7624 55.9709L92.7263 57.9705C92.7381 57.9708 92.7144 57.972 92.6704 57.9548 92.6228 57.9362 92.5724 57.9041 92.5308 57.8604L93.9775 56.4794zM92.7444 55.9707H91.9387v2H92.7444v-2zM90.9387 56.9707V58.3096h2V56.9707h-2zM97.4992 58.6758v1h1v-1h-1zm-1.6875.0v-1h-1v1h1zM95.8117 59.8184h-1v1h1v-1zM97.7922 59.8184h1v-1h-1v1zM97.7922 60.5244v1h1v-1h-1zM94.9328 60.5244h-1v1h1v-1zM94.9328 56.2588v-1h-1v1h1zM97.7863 56.2588h1v-1h-1v1zm0 .7119v1h1v-1h-1zM95.8117 56.9707v-1h-1v1h1zM95.8117 57.9873h-1v1h1v-1zm1.6875.0h1v-1h-1v1zM97.4992 57.6758H95.8117v2h1.6875v-2zm-2.6875 1V59.8184h2V58.6758h-2zM95.8117 60.8184H97.7922v-2H95.8117v2zM96.7922 59.8184V60.5244h2V59.8184h-2zM97.7922 59.5244H94.9328v2H97.7922v-2zM95.9328 60.5244V56.2588h-2V60.5244h2zM94.9328 57.2588H97.7863v-2H94.9328v2zM96.7863 56.2588v.7119h2v-.7119h-2zm1-.2881H95.8117v2H97.7863v-2zM94.8117 56.9707V57.9873h2V56.9707h-2zM95.8117 58.9873h1.6875v-2H95.8117v2zm.6875-1V58.6758h2V57.9873h-2zM101.577 56.9707v1h1v-1h-1zM100.271 56.9707v-1H99.2707v1H100.271zM100.271 60.5244v1h1v-1h-1zM99.3918 60.5244h-1v1h1v-1zM99.3918 56.9707H100.392v-1H99.3918v1zM98.1028 56.9707h-1v1h1v-1zm0-.7119v-1h-1v1h1zM101.577 56.2588h1v-1h-1v1zm0-.2881H100.271v2H101.577v-2zM99.2707 56.9707V60.5244H101.271V56.9707H99.2707zM100.271 59.5244H99.3918v2H100.271v-2zM100.392 60.5244V56.9707H98.3918V60.5244H100.392zM99.3918 55.9707H98.1028v2H99.3918v-2zM99.1028 56.9707v-.7119h-2v.7119h2zm-1 .2881H101.577v-2H98.1028v2zM100.577 56.2588v.7119h2v-.7119h-2zM104.648 58.6758v1h1v-1h-1zM102.96 58.6758v-1h-1v1h1zM102.96 59.8184h-1v1h1v-1zM104.941 59.8184h1v-1h-1v1zM104.941 60.5244v1h1v-1h-1zM102.081 60.5244h-1v1h1v-1zM102.081 56.2588v-1h-1v1h1zM104.935 56.2588h1v-1h-1v1zm0 .7119v1h1v-1h-1zM102.96 56.9707v-1h-1v1h1zM102.96 57.9873h-1v1h1v-1zM104.648 57.9873h1v-1h-1v1zM104.648 57.6758H102.96v2H104.648v-2zM101.96 58.6758V59.8184h2V58.6758h-2zM102.96 60.8184H104.941v-2H102.96v2zM103.941 59.8184V60.5244h2V59.8184h-2zM104.941 59.5244H102.081v2H104.941v-2zM103.081 60.5244V56.2588h-2V60.5244h2zM102.081 57.2588H104.935v-2H102.081v2zM103.935 56.2588v.7119h2v-.7119h-2zm1-.2881H102.96v2H104.935v-2zM101.96 56.9707V57.9873h2V56.9707h-2zM102.96 58.9873H104.648v-2H102.96v2zM103.648 57.9873V58.6758h2V57.9873h-2zM107.035 58.9629 107.925 58.507 107.647 57.9629H107.035v1zM106.335 58.9629v-1h-1v1h1zM106.335 60.5244v1h1v-1h-1zM105.456 60.5244h-1v1h1v-1zM105.456 56.2588v-1h-1v1h1zM108.427 58.2773 107.589 57.7324 107.587 57.7344 108.427 58.2773zM107.856 58.7402 107.445 57.8284 106.473 58.2661 106.972 59.2081 107.856 58.7402zM108.779 60.4834h1V60.235L109.662 60.0155 108.779 60.4834zM108.779 60.5244v1h1v-1h-1zM107.835 60.5244 106.945 60.9803 107.224 61.5244H107.835v-1zM106.335 58.251h-1v1h1v-1zM107.557 58.084 108.234 58.8202 108.24 58.8143 107.557 58.084zM107.566 57.1436 106.852 57.8446 106.859 57.8507 107.566 57.1436zM106.335 56.9707v-1h-1v1h1zM107.035 57.9629H106.335v2H107.035v-2zM105.335 58.9629V60.5244h2V58.9629h-2zM106.335 59.5244H105.456v2H106.335v-2zM106.456 60.5244V56.2588h-2V60.5244h2zM105.456 57.2588H107.041v-2H105.456v2zM107.041 57.2588C107.41 57.2588 107.54 57.3421 107.573 57.3684L108.842 55.823C108.327 55.4001 107.68 55.2588 107.041 55.2588v2zM107.573 57.3684C107.589 57.382 107.593 57.3893 107.596 57.3978 107.602 57.4105 107.617 57.4538 107.617 57.5479h2C109.617 56.8917 109.385 56.2689 108.842 55.823L107.573 57.3684zM107.617 57.5479C107.617 57.6212 107.609 57.6686 107.602 57.6959 107.595 57.7219 107.589 57.7314 107.589 57.7324L109.265 58.8223C109.521 58.4286 109.617 57.9841 109.617 57.5479h-2zM107.587 57.7344C107.586 57.7369 107.579 57.7461 107.561 57.7611 107.541 57.7769 107.506 57.8012 107.445 57.8284L108.266 59.652C108.659 59.4751 109.016 59.2076 109.267 58.8202L107.587 57.7344zM106.972 59.2081 107.895 60.9513 109.662 60.0155 108.739 58.2723 106.972 59.2081zM107.779 60.4834V60.5244h2V60.4834h-2zM108.779 59.5244H107.835v2H108.779v-2zM108.725 60.0685 107.925 58.507 106.145 59.4188 106.945 60.9803 108.725 60.0685zM106.335 59.251H107.044v-2H106.335v2zM107.044 59.251C107.428 59.251 107.873 59.1521 108.234 58.8202L106.88 57.3478C106.935 57.2977 106.99 57.2708 107.028 57.2584 107.062 57.2472 107.072 57.251 107.044 57.251v2zM108.24 58.8143C108.601 58.4762 108.738 58.0353 108.738 57.6182h-2C106.738 57.6149 106.739 57.5766 106.761 57.5193 106.785 57.4583 106.824 57.3998 106.874 57.3537L108.24 58.8143zM108.738 57.6182C108.738 57.2177 108.618 56.7812 108.273 56.4364L106.859 57.8507C106.809 57.8016 106.775 57.7442 106.756 57.6908 106.738 57.6412 106.738 57.6122 106.738 57.6182h2zM108.279 56.4425C107.905 56.0627 107.422 55.9707 107.041 55.9707v2C107.082 57.9707 107.074 57.9761 107.037 57.9637 106.994 57.9496 106.922 57.9155 106.853 57.8446L108.279 56.4425zM107.041 55.9707H106.335v2H107.041v-2zM105.335 56.9707V58.251h2V56.9707h-2zM111.324 59.0244 110.716 59.8181 110.724 59.8244 111.324 59.0244zM110.692 58.7432 110.381 59.6937 110.386 59.6954 110.692 58.7432zM109.968 58.4502 109.493 59.33 109.494 59.3307 109.968 58.4502zM109.435 56.7773 108.623 56.1928 108.622 56.1944 109.435 56.7773zM109.994 56.3525 109.61 55.4292 109.608 55.4303 109.994 56.3525zM111.629 56.3672 111.206 57.2732 111.212 57.276 111.629 56.3672zM112.183 56.833 111.345 57.3783 111.348 57.384 112.183 56.833zM112.382 57.5186v1h1v-1h-1zM111.503 57.5186h-1v1h1v-1zM111.319 57.0645 110.654 57.8119 110.661 57.8178 111.319 57.0645zM110.299 57.0381 110.901 57.8366 110.909 57.8302 110.299 57.0381zM110.328 57.7441 109.768 58.5726 109.774 58.5762 110.328 57.7441zM110.947 58.0078 110.657 58.9651 110.658 58.9654 110.947 58.0078zM111.963 60.2695 112.562 61.0702 112.566 61.0675 111.963 60.2695zM109.939 60.4043 109.529 61.3165 109.534 61.3189 109.939 60.4043zM109.321 59.9092 108.491 60.4675 108.494 60.4728 109.321 59.9092zM109.11 59.1826v-1h-1v1h1zM109.991 59.1826h1v-1h-1v1zM111.324 59.7627 111.907 60.5756 111.916 60.5691 111.324 59.7627zM112.5 59.4053C112.5 58.9725 112.33 58.5282 111.924 58.2244L110.724 59.8244C110.657 59.7738 110.592 59.6989 110.548 59.6046 110.507 59.5144 110.5 59.4402 110.5 59.4053h2zM111.933 58.2308C111.669 58.0281 111.314 57.8924 110.997 57.7909L110.386 59.6954C110.516 59.7371 110.609 59.7726 110.672 59.8005 110.741 59.8312 110.745 59.8399 110.716 59.818L111.933 58.2308zM111.002 57.7927C110.725 57.7021 110.546 57.6259 110.442 57.5697L109.494 59.3307C109.745 59.4659 110.048 59.585 110.381 59.6937L111.002 57.7927zM110.443 57.5704C110.302 57.4939 110.257 57.4367 110.247 57.4233 110.245 57.4197 110.244 57.4177 110.244 57.4173 110.244 57.417 110.244 57.417 110.244 57.417 110.244 57.4169 110.243 57.4155 110.243 57.4121 110.242 57.4087 110.241 57.4024 110.241 57.3926h-2C108.241 58.2976 108.777 58.9435 109.493 59.33L110.443 57.5704zM110.241 57.3926C110.241 57.3817 110.242 57.3746 110.243 57.3709 110.243 57.3689 110.243 57.3676 110.243 57.3669 110.244 57.3662 110.244 57.3658 110.244 57.3657 110.244 57.3657 110.244 57.3658 110.244 57.3659 110.244 57.366 110.244 57.3661 110.244 57.3659 110.244 57.3657 110.245 57.3639 110.247 57.3603L108.622 56.1944C108.366 56.5515 108.241 56.9624 108.241 57.3926h2zM110.246 57.3619C110.252 57.354 110.279 57.3175 110.381 57.2747L109.608 55.4303C109.225 55.5907 108.879 55.8374 108.623 56.1928L110.246 57.3619zM110.378 57.2758C110.485 57.2317 110.625 57.2002 110.815 57.2002v-2C110.399 55.2002 109.992 55.2702 109.61 55.4292L110.378 57.2758zM110.815 57.2002C110.996 57.2002 111.12 57.2328 111.206 57.2732L112.052 55.4612C111.662 55.2789 111.243 55.2002 110.815 55.2002v2zM111.212 57.276C111.295 57.3141 111.326 57.3502 111.345 57.3783L113.021 56.2877C112.778 55.9134 112.44 55.6391 112.046 55.4584L111.212 57.276zM111.348 57.384C111.366 57.4114 111.382 57.446 111.382 57.5186h2C113.382 57.0794 113.265 56.6569 113.017 56.2821L111.348 57.384zM112.382 56.5186H111.503v2H112.382v-2zM112.503 57.5186C112.503 57.0964 112.359 56.6457 111.976 56.3111L110.661 57.8178C110.605 57.7686 110.559 57.7042 110.531 57.6351 110.504 57.5703 110.503 57.5253 110.503 57.5186h2zM111.983 56.317C111.621 55.9951 111.18 55.9004 110.8 55.9004v2C110.831 57.9004 110.825 57.9045 110.795 57.8948 110.761 57.8841 110.708 57.8597 110.654 57.8119L111.983 56.317zM110.8 55.9004C110.456 55.9004 110.044 55.9724 109.689 56.2459L110.909 57.8302C110.852 57.8746 110.802 57.8928 110.779 57.8991 110.758 57.9047 110.762 57.9004 110.8 57.9004v-2zM109.697 56.2397C109.329 56.5173 109.12 56.9313 109.12 57.3955h2C111.12 57.4586 111.107 57.5475 111.059 57.642 111.012 57.7364 110.95 57.7998 110.901 57.8365L109.697 56.2397zM109.12 57.3955C109.12 57.9378 109.42 58.3369 109.768 58.5726L110.888 56.9157C110.913 56.932 110.975 56.9802 111.031 57.0743 111.091 57.1751 111.12 57.2891 111.12 57.3955h-2zM109.774 58.5762C110.033 58.749 110.346 58.8711 110.657 58.9651L111.236 57.0506C111.004 56.9805 110.905 56.9268 110.883 56.9121L109.774 58.5762zM110.658 58.9654C111.091 59.0956 111.279 59.2229 111.341 59.2836L112.737 57.8512C112.342 57.4665 111.802 57.2208 111.235 57.0502L110.658 58.9654zM111.341 59.2836C111.364 59.3059 111.37 59.3186 111.372 59.3233 111.374 59.3288 111.382 59.3501 111.382 59.3994h2C113.382 58.81 113.167 58.2704 112.737 57.8512L111.341 59.2836zM111.382 59.3994C111.382 59.4286 111.379 59.4461 111.378 59.4542 111.376 59.4619 111.375 59.4629 111.376 59.46 111.378 59.4569 111.379 59.4549 111.379 59.455 111.379 59.4554 111.374 59.4613 111.36 59.4715L112.566 61.0675C113.111 60.6559 113.382 60.0621 113.382 59.3994h-2zM111.364 59.4689C111.31 59.5095 111.168 59.583 110.835 59.583v2C111.448 61.583 112.058 61.4476 112.562 61.0702L111.364 59.4689zM110.835 59.583C110.63 59.583 110.471 59.5464 110.343 59.4897L109.534 61.3189C109.945 61.5004 110.384 61.583 110.835 61.583v-2zM110.349 59.4921C110.219 59.4337 110.169 59.3782 110.147 59.3456L108.494 60.4728C108.757 60.8581 109.12 61.1327 109.529 61.3165L110.349 59.4921zM110.15 59.3509C110.131 59.3223 110.11 59.2785 110.11 59.1826h-2C108.11 59.6375 108.229 60.0781 108.491 60.4675L110.15 59.3509zM109.11 60.1826H109.991v-2H109.11v2zM108.991 59.1826C108.991 59.6235 109.132 60.1201 109.561 60.4791 109.955 60.8095 110.439 60.8887 110.835 60.8887v-2C110.761 58.8887 110.732 58.8806 110.735 58.8813 110.74 58.8828 110.786 58.8969 110.844 58.9452 110.906 58.9968 110.949 59.0614 110.973 59.1215 110.995 59.1754 110.991 59.2028 110.991 59.1826h-2zM110.835 60.8887C111.163 60.8887 111.559 60.8248 111.907 60.5755L110.742 58.9499C110.799 58.9088 110.846 58.8935 110.865 58.8888 110.882 58.8845 110.875 58.8887 110.835 58.8887v2zM111.916 60.5691C112.304 60.2843 112.5 59.8581 112.5 59.4053h-2C110.5 59.351 110.511 59.2643 110.559 59.1676 110.607 59.0692 110.674 58.9994 110.733 58.9563L111.916 60.5691z" fill="#afb1b8"/></svg>