<svg aria-hidden="true" style="position:absolute;width:0;height:0" xmlns="http://www.w3.org/2000/svg" overflow="hidden"><defs><symbol id="icon-Client-1" viewBox="0 0 60 32"><path fill="var(--color1, #afb1b8)" d="M24.533 7.111l2.598 2.46h7.248v6.861l2.598 2.46V7.111H24.533z"/><path fill="var(--color1, #afb1b8)" d="M22.4 9.467v11.444h12.089v-4.549L27.208 9.47 22.4 9.467zm9.786 9.771h-7.873v-7.697h.556v7.176h7.317v.521zM25.881 23.034l.291-.599h.243l-.424.799v.465h-.22v-.465l-.424-.799h.244l.291.599zm1.249.371h-.49l-.102.294h-.228l.477-1.264h.197l.478 1.264h-.229l-.103-.294zm-.428-.177h.366l-.183-.524-.183.524zm1.293.13c0-.058.016-.112.048-.161s.095-.107.188-.174c-.049-.062-.084-.115-.103-.158s-.029-.085-.029-.126c0-.099.03-.177.09-.234s.141-.087.243-.087c.092 0 .167.027.226.082s.089.121.089.201c0 .053-.013.101-.04.146s-.07.088-.131.132l-.086.063.244.288a.508.508 0 00.053-.232h.183a.632.632 0 01-.109.383l.186.22h-.245l-.071-.084c-.09.068-.198.102-.323.102s-.225-.033-.3-.099a.331.331 0 01-.112-.26zm.418.19a.326.326 0 00.2-.071l-.276-.326-.027.019c-.069.053-.104.113-.104.181 0 .058.019.106.056.142s.088.055.151.055zm-.116-.814c0 .049.03.11.089.183l.096-.066.027-.022a.157.157 0 00.054-.122c0-.033-.012-.061-.037-.084s-.056-.036-.095-.036c-.041 0-.074.014-.098.042s-.036.063-.036.105zm2.296.554c-.013.135-.063.24-.149.316s-.202.113-.346.113a.46.46 0 01-.444-.275.733.733 0 01-.065-.306v-.118c0-.119.021-.224.063-.315a.478.478 0 01.455-.284c.14 0 .252.038.337.114s.135.183.148.321h-.219c-.01-.091-.037-.156-.08-.196s-.104-.061-.187-.061c-.095 0-.169.035-.22.105s-.077.172-.078.306v.112c0 .137.024.241.073.313s.121.108.215.108c.086 0 .151-.019.194-.058s.071-.103.082-.194h.219zm1.206-.188c0 .124-.021.233-.064.326a.486.486 0 01-.458.29c-.102 0-.194-.025-.274-.075s-.142-.122-.186-.214a.768.768 0 01-.066-.32v-.071c0-.123.022-.232.065-.326a.492.492 0 01.459-.292.5.5 0 01.273.075c.08.049.142.12.185.213s.065.201.066.324v.07zm-.22-.066c0-.14-.027-.247-.08-.322s-.128-.112-.225-.112c-.095 0-.169.037-.223.112s-.08.179-.082.315v.073c0 .139.027.246.081.322s.13.114.226.114c.097 0 .172-.037.224-.111s.079-.182.079-.325v-.066z"/></symbol><symbol id="icon-Client-2" viewBox="0 0 60 32"><path fill="var(--color1, #afb1b8)" d="M29.147 7.799h.049c.09 0 .187.009.283.017.424.03.845.093 1.259.19V6.988a7.506 7.506 0 00-1.3-.207 9.488 9.488 0 00-.525-.025h-.152c-.88.003-1.756.116-2.608.336-.971.242-1.902.621-2.768 1.126v10.097a11.224 11.224 0 012.638-1.028 11.508 11.508 0 012.214-.34h.03c.125-.006.25-.01.379-.011v-1.034c-.971.012-1.937.141-2.878.382-.348.09-.684.188-1 .297l-.36.122V8.831l.154-.074a10.057 10.057 0 013.771-.954c.143-.007.287-.011.428-.011h.162c.075.002.149.004.224.008z"/><path fill="var(--color1, #afb1b8)" d="M31.684 8.865a9.303 9.303 0 01-1.505-.122 8.306 8.306 0 01-.47-.095v9.981c.647.16 1.312.239 1.979.233a10.67 10.67 0 002.608-.335 10.57 10.57 0 002.769-1.126V7.484c-.833.452-1.719.798-2.637 1.029-.896.23-1.817.348-2.742.352zm3.991.173l.36-.121v7.875l-.154.074a9.849 9.849 0 01-1.84.661 9.59 9.59 0 01-2.354.305 8.1 8.1 0 01-.702-.03l-.246-.022V9.682l.287.019c.209.014.425.02.659.02a12.206 12.206 0 002.989-.383c.336-.089.669-.188 1-.299zM24.084 21.764a.53.53 0 00-.4-.162.607.607 0 00-.231.043.515.515 0 00-.296.299.588.588 0 00-.041.223v1.349a.643.643 0 00.053.277.482.482 0 00.32.277.762.762 0 00.201.028.56.56 0 00.516-.353.53.53 0 00.043-.215v-.151h-.353v.12a.307.307 0 01-.021.12.221.221 0 01-.051.076.268.268 0 01-.148.052.182.182 0 01-.165-.073.319.319 0 01-.047-.181v-1.258a.44.44 0 01.043-.202c.018-.028.044-.051.075-.066s.064-.02.098-.016c.03-.001.061.005.088.018s.051.033.069.057c.039.052.06.116.058.181v.117h.349v-.137a.633.633 0 00-.161-.426zM26.179 21.749a.626.626 0 00-.401-.148.6.6 0 00-.396.148.56.56 0 00-.137.189.617.617 0 00-.051.261v1.294a.636.636 0 00.051.265.53.53 0 00.137.181.55.55 0 00.186.114.604.604 0 00.611-.114.542.542 0 00.133-.181.62.62 0 00.051-.265v-1.294a.584.584 0 00-.184-.45zm-.164 1.744a.236.236 0 01-.07.188.258.258 0 01-.332 0 .236.236 0 01-.07-.188v-1.294a.236.236 0 01.07-.188.258.258 0 01.332 0 .236.236 0 01.07.188v1.294zM28.931 24.071v-2.449h-.339l-.445 1.297h-.006l-.449-1.297h-.335v2.449h.35v-1.49h.006l.343 1.053h.174l.345-1.053h.006v1.49h.35zM30.918 21.793a.498.498 0 00-.198-.134.783.783 0 00-.254-.038h-.52v2.449h.349v-.957h.18a.638.638 0 00.315-.067.522.522 0 00.192-.187.586.586 0 00.08-.213c.014-.092.02-.185.019-.278a1.42 1.42 0 00-.034-.35.519.519 0 00-.129-.225zm-.18.747a.336.336 0 01-.032.128.197.197 0 01-.09.086.36.36 0 01-.165.031h-.159v-.833h.18a.327.327 0 01.157.031.199.199 0 01.082.09.375.375 0 01.031.137v.163c0 .057.004.116 0 .168h-.004zM32.572 21.622h-.286l-.54 2.449h.349l.103-.526h.476l.103.526h.349l-.553-2.449zm-.322 1.589l.172-.888h.006l.171.888h-.349zM34.827 23.097h-.006l-.527-1.476h-.335v2.449h.349v-1.473h.007l.533 1.473h.328v-2.449h-.349v1.476zM36.959 21.622l-.281.974h-.007l-.281-.974h-.37l.479 1.414v1.035h.349v-1.035l.479-1.414h-.369zM23.111 24.762h.168v.472h.114v-.472h.167v-.097h-.45v.097zM24.525 24.666l-.22.569h.121l.047-.129h.227l.049.129h.124l-.226-.569h-.121zm-.018.343l.077-.211.077.211h-.155zM25.923 25.025h.131v.073a.214.214 0 01-.135.048c-.023.001-.046-.003-.067-.012s-.039-.024-.054-.042a.237.237 0 01-.042-.148c0-.127.055-.19.164-.19.029-.003.057.005.081.021s.041.041.048.069l.112-.022c-.024-.111-.104-.167-.241-.167a.287.287 0 00-.199.073.275.275 0 00-.082.218.31.31 0 00.073.213c.028.029.062.051.099.065s.077.02.117.018a.342.342 0 00.241-.09v-.224h-.246v.096zM27.35 24.666h-.115v.569h.398v-.097h-.283v-.472zM28.557 24.666h-.115v.569h.115v-.569zM29.737 25.046l-.233-.38h-.112v.569h.107v-.372l.228.372h.114v-.569h-.105v.38zM30.804 24.984h.283v-.097h-.283v-.125h.305v-.097h-.42v.569h.432v-.097h-.317v-.154zM33.391 24.89h-.224v-.224h-.114v.569h.114v-.249h.224v.249h.114v-.569h-.114v.224zM34.464 24.984h.284v-.097h-.284v-.125h.306v-.097h-.42v.569h.431v-.097h-.317v-.154zM35.919 24.984c.099-.015.149-.068.149-.158.003-.024-.001-.049-.011-.071s-.025-.041-.045-.056a.318.318 0 00-.166-.033h-.241v.569h.114v-.238h.022a.145.145 0 01.071.013c.017.01.031.025.041.042l.124.181h.137l-.069-.111a.404.404 0 00-.126-.137zm-.115-.079h-.084v-.143h.09a.285.285 0 01.116.014c.008.007.015.017.019.027s.006.021.006.032a.073.073 0 01-.031.057.327.327 0 01-.116.014zM37.017 24.984h.283v-.097h-.283v-.125h.306v-.097h-.421v.569h.432v-.097h-.316v-.154z"/></symbol><symbol id="icon-Client-3" viewBox="0 0 60 32"><path fill="var(--color1, #afb1b8)" d="M25.367 23.394c.005 0 .011.001.015.003s.009.005.013.009l.073.077a.604.604 0 01-.206.146.727.727 0 01-.292.052.711.711 0 01-.274-.049.592.592 0 01-.341-.351.773.773 0 01-.047-.273.739.739 0 01.05-.274.642.642 0 01.142-.213.654.654 0 01.22-.139.799.799 0 01.283-.049.704.704 0 01.262.044c.072.03.139.072.197.123l-.061.082a.046.046 0 01-.016.015c-.007.005-.016.007-.025.006s-.019-.004-.027-.009l-.033-.022-.046-.028a.597.597 0 00-.253-.058.537.537 0 00-.203.037.454.454 0 00-.262.267.592.592 0 00-.037.216.636.636 0 00.037.22c.022.06.057.116.102.163a.414.414 0 00.152.101c.06.024.124.035.188.035a.702.702 0 00.112-.007.42.42 0 00.241-.112.05.05 0 01.035-.014zM27.48 23.008a.742.742 0 01-.049.271c-.03.079-.077.15-.138.21s-.135.107-.216.138a.817.817 0 01-.556 0 .627.627 0 01-.354-.352.77.77 0 010-.543.623.623 0 01.139-.213.627.627 0 01.215-.133.805.805 0 01.556 0 .609.609 0 01.354.349.71.71 0 01.049.273zm-.192 0a.623.623 0 00-.035-.218.43.43 0 00-.253-.266.585.585 0 00-.404 0 .43.43 0 00-.254.266.692.692 0 000 .436.45.45 0 00.099.163.44.44 0 00.155.102c.13.046.274.046.404 0a.427.427 0 00.253-.265.623.623 0 00.035-.218zM28.921 23.237l.019.049a2.405 2.405 0 01.045-.097l.467-.809c.009-.014.017-.023.027-.025a.097.097 0 01.038-.004h.138v1.316h-.164v-.968-.041-.045l-.47.821c-.006.012-.016.023-.028.03s-.026.011-.04.011h-.027c-.014 0-.028-.004-.04-.011s-.022-.018-.027-.03l-.484-.826v1.057h-.158v-1.314h.138a.12.12 0 01.038.004c.011.005.02.014.026.025l.477.81a.416.416 0 01.024.047zM30.68 23.171v.493h-.183v-1.315h.408a.797.797 0 01.228.029.44.44 0 01.161.082.33.33 0 01.091.129.424.424 0 01.031.168.373.373 0 01-.133.3.446.446 0 01-.162.087.684.684 0 01-.22.03l-.221-.003zm0-.141h.221a.456.456 0 00.142-.02.277.277 0 00.102-.057.232.232 0 00.062-.087.282.282 0 00.022-.111.244.244 0 00-.082-.197.371.371 0 00-.246-.071h-.221v.542zM33.138 23.666h-.145a.07.07 0 01-.04-.012.086.086 0 01-.024-.03l-.124-.318h-.625l-.129.318a.076.076 0 01-.023.03.061.061 0 01-.041.013h-.145l.549-1.317h.19l.556 1.317zm-.905-.489h.516l-.218-.536a.9.9 0 01-.041-.124l-.021.069c-.006.021-.014.04-.02.056l-.216.535zM33.928 22.356c.011.006.02.014.027.024l.8.992v-.046V22.35h.164v1.317h-.091c-.013 0-.026-.002-.037-.008s-.021-.015-.029-.024l-.799-.992v.045.978h-.164v-1.317h.097c.011 0 .023.002.033.006zM36.268 23.143v.523h-.183v-.523l-.506-.793h.164a.06.06 0 01.039.011c.01.008.019.018.025.03l.316.512a.765.765 0 01.056.117l.024-.057a.425.425 0 01.031-.06l.312-.515a.127.127 0 01.024-.028.056.056 0 01.039-.013h.166l-.507.796zM28.831 20.14c.08.01.16.017.241.024 1.234-.526 2.278-1.387 3.001-2.475s1.094-2.355 1.066-3.643l-1.36-1.296c.276 1.371.147 2.788-.374 4.093s-1.412 2.446-2.575 3.296z"/><path fill="var(--color1, #afb1b8)" d="M28.345 20.08l.037.007c1.242-.847 2.19-2.029 2.719-3.394s.617-2.85.251-4.263l-1.937-1.845c.783 1.517 1.099 3.215.909 4.895s-.876 3.276-1.979 4.6zM34.914 15.568a6.683 6.683 0 01-2.279 3.639 7.271 7.271 0 01-1.083.741c.937-.262 1.798-.726 2.517-1.356s1.277-1.408 1.63-2.276l-.786-.748z"/><path fill="var(--color1, #afb1b8)" d="M34.606 15.36l-1.118-1.066c-.021 1.215-.384 2.402-1.05 3.438s-1.611 1.884-2.737 2.454h.005c.251 0 .502-.014.751-.043 1.052-.409 1.982-1.06 2.706-1.895s1.22-1.827 1.443-2.889zM28.507 9.806l-1.334-1.273c-1.193.439-2.219 1.211-2.943 2.215s-1.114 2.193-1.118 3.411c.004 1.346.48 2.653 1.352 3.712s2.089 1.812 3.46 2.139c1.224-1.421 1.94-3.176 2.045-5.011s-.407-3.654-1.461-5.193zM37.689 15.164c-.005-1.597-.673-3.128-1.858-4.257s-2.792-1.766-4.468-1.771a6.51 6.51 0 00-2.265.402l8.17 7.783a5.72 5.72 0 00.422-2.157z"/></symbol><symbol id="icon-Client-4" viewBox="0 0 60 32"><path fill="var(--color1, #afb1b8)" d="M20.409 13.273h.001c.711 0 1.279.56 1.279 1.242v.001c0 .681-.568 1.242-1.279 1.242h-.001c-.711 0-1.279-.56-1.279-1.242v-.001c0-.681.568-1.242 1.279-1.242zM23.064 18.42l-.158.023v-5.802c.002-1.04.427-2.039 1.184-2.776a4.104 4.104 0 015.709.001 3.888 3.888 0 011.183 2.775v.001c0 2.426-2.009 3.884-4.106 4.745a16.62 16.62 0 01-2.867.861c-.392.082-.718.137-.945.171zM18.755 21.526a.934.934 0 01-.695-.553.91.91 0 01.206-1.013.948.948 0 01.484-.252c.183-.035.372-.017.544.052s.32.188.425.34a.908.908 0 01.161.516m-1.125.91v.019h.178a.967.967 0 00.668-.271.932.932 0 00.278-.658m-1.124.91a.959.959 0 00.178.017v-.175l-.178.158zm1.124-.91h-.178l.178-.001v.001zm1.001 1.892a2.801 2.801 0 01-3.895 0 2.65 2.65 0 01-.808-1.892c0-1.652 1.367-2.653 2.823-3.251.72-.295 1.442-.483 1.985-.597a11.833 11.833 0 01.703-.126v3.974a2.652 2.652 0 01-.808 1.892zM24.921 20.9h-.6v.62h-.313v-1.517h.988v.253h-.675v.392h.6v.252zm1.502-.104c0 .149-.026.28-.079.393s-.128.199-.227.26a.625.625 0 01-.338.092c-.126 0-.238-.03-.336-.091s-.175-.147-.229-.258a.889.889 0 01-.082-.388v-.075c0-.149.027-.281.08-.394a.595.595 0 01.565-.353.62.62 0 01.336.092c.099.06.175.148.228.261s.081.244.081.393v.068zm-.317-.069c0-.159-.028-.28-.085-.363s-.138-.124-.244-.124c-.105 0-.186.041-.243.123s-.086.201-.086.358v.074c0 .155.028.275.085.36s.139.128.246.128c.105 0 .185-.041.242-.123s.085-.203.085-.36v-.074zm1.33.395c0-.059-.021-.104-.063-.135s-.117-.065-.225-.1a1.588 1.588 0 01-.257-.104c-.172-.093-.258-.218-.258-.376 0-.082.023-.155.069-.219s.113-.115.199-.151c.087-.036.184-.054.292-.054s.205.02.29.059a.436.436 0 01.268.41h-.313c0-.069-.022-.123-.066-.161s-.105-.058-.184-.058c-.076 0-.136.016-.178.049s-.064.074-.064.127c0 .049.025.091.074.124s.123.065.22.094c.178.053.307.12.389.199s.122.178.122.296c0 .131-.05.234-.149.309s-.233.111-.401.111c-.117 0-.223-.021-.319-.064s-.169-.102-.22-.176a.45.45 0 01-.075-.258h.314c0 .167.1.251.3.251.074 0 .132-.015.174-.045s.063-.073.063-.127zm1.668-.866h-.465v1.264h-.313v-1.264h-.458v-.253h1.235v.253zm1.092.607h-.6v.406h.704v.251h-1.017v-1.517h1.015v.253h-.702v.361h.6v.245zm.848.102h-.249v.555h-.313v-1.517h.564c.179 0 .317.04.415.12s.146.193.146.339c0 .103-.023.19-.068.259s-.112.124-.203.165l.328.62v.015h-.335l-.284-.555zm-.248-.254h.252c.078 0 .139-.02.182-.059s.065-.096.065-.166c0-.072-.02-.128-.061-.169s-.102-.061-.186-.061h-.251v.455zm1.893.274v.534h-.313v-1.517h.592c.114 0 .214.021.3.063a.469.469 0 01.27.439c0 .149-.051.266-.153.352s-.242.128-.422.128h-.274zm0-.253h.279c.083 0 .145-.019.189-.058s.066-.094.066-.167c0-.074-.022-.134-.066-.18s-.104-.069-.181-.071h-.286v.476zm1.977.131h-.6v.406h.704v.251h-1.017v-1.517h1.015v.253h-.702v.361h.6v.245zm1.45-.607h-.464v1.264h-.313v-1.264h-.458v-.253h1.235v.253zm1.092.607h-.6v.406h.704v.251h-1.017v-1.517h1.015v.253h-.702v.361h.6v.245zm.849.102h-.249v.555h-.313v-1.517h.564c.179 0 .318.04.415.12s.146.193.146.339c0 .103-.022.19-.068.259s-.112.124-.203.165l.328.62v.015h-.336l-.284-.555zm-.249-.254h.252c.079 0 .139-.02.182-.059s.064-.096.064-.166c0-.072-.02-.128-.061-.169s-.102-.061-.187-.061h-.251v.455zm1.836.411c0-.059-.021-.104-.063-.135s-.117-.065-.225-.1a1.588 1.588 0 01-.257-.104c-.172-.093-.258-.218-.258-.376 0-.082.023-.155.069-.219s.113-.115.199-.151c.087-.036.184-.054.292-.054s.205.02.289.059a.436.436 0 01.268.41h-.313c0-.069-.022-.123-.065-.161s-.105-.058-.185-.058c-.076 0-.136.016-.178.049s-.064.074-.064.127c0 .049.025.091.074.124.05.033.123.065.22.094.178.053.307.12.388.199s.122.178.122.296c0 .131-.05.234-.149.309s-.233.111-.401.111c-.117 0-.223-.021-.319-.064s-.169-.102-.22-.176a.45.45 0 01-.075-.258h.313c0 .167.1.251.3.251.074 0 .132-.015.174-.045s.063-.073.063-.127z"/><path fill="var(--color1, #afb1b8)" d="M24.921 20.9v.356h.356V20.9h-.356zm-.6 0v-.356h-.356v.356h.356zm0 .62v.356h.356v-.356h-.356zm-.313 0h-.356v.356h.356v-.356zm0-1.517v-.356h-.356v.356h.356zm.988 0h.356v-.356h-.356v.356zm0 .253v.356h.356v-.356h-.356zm-.675 0V19.9h-.356v.356h.356zm0 .392h-.356v.356h.356v-.356zm.6 0h.356v-.356h-.356v.356zm0-.104h-.6v.711h.6v-.711zm-.956.356v.62h.711v-.62h-.711zm.356.264h-.313v.711h.313v-.711zm.043.356v-1.517h-.711v1.517h.711zm-.356-1.161h.988v-.711h-.988v.711zm.632-.356v.253h.711v-.253h-.711zm.356-.102h-.675v.711h.675v-.711zm-1.031.355v.392h.711v-.392h-.711zm.356.747h.6v-.711h-.6v.711zm.244-.355v.252h.711v-.252h-.711zm1.551.801l-.187-.302-.001.001.188.302zm-.903-.257l-.32.154v.001l.32-.155zm-.082-.388h-.356v.002l.356-.002zm.08-.469l-.321-.153v.001l.322.152zm.228-.261l.187.303h.001l-.187-.302zm.674 0l-.188.302.003.002.186-.303zm.228.261l-.322.151.001.002.321-.153zm-.807.029l.291.204.001-.001-.292-.203zm-.086.358l-.356-.002v.002h.356zm.573.439l.293.201.001-.001-.294-.2zm.085-.36l.356.002v-.002h-.356zm-.039-.005a.56.56 0 01-.046.242l.644.302a1.27 1.27 0 00.113-.544h-.711zm-.045.242a.244.244 0 01-.092.109l.375.604a.951.951 0 00.362-.412l-.644-.302zm-.094.109a.274.274 0 01-.149.038v.711a.978.978 0 00.526-.146l-.377-.603zm-.149.038a.28.28 0 01-.151-.038l-.372.606a.982.982 0 00.522.143v-.711zm-.151-.038a.251.251 0 01-.095-.11l-.64.31a.956.956 0 00.363.406l.372-.606zm-.094-.11a.53.53 0 01-.047-.235l-.711.003c.001.19.037.373.117.54l.641-.308zm-.047-.233v-.075h-.711v.075h.711zm0-.075c0-.107.019-.184.046-.242l-.643-.304c-.08.169-.114.354-.114.546h.711zm.045-.241a.253.253 0 01.094-.112l-.373-.605a.962.962 0 00-.363.411l.642.305zm.095-.112a.274.274 0 01.15-.038v-.711a.985.985 0 00-.525.145l.375.604zm.15-.038c.066 0 .112.015.148.038l.377-.603a.975.975 0 00-.525-.146v.711zm.151.039a.245.245 0 01.092.109l.644-.302a.948.948 0 00-.364-.414l-.372.606zm.093.112a.552.552 0 01.046.239h.711c0-.192-.035-.377-.116-.546l-.641.307zm.046.239v.068h.711v-.068h-.711zm.395-.001c0-.192-.033-.397-.148-.564l-.586.404c-.002-.003.004.005.011.032s.012.069.012.128h.711zm-.149-.564a.632.632 0 00-.537-.278v.711c.006 0-.004.001-.021-.008-.008-.004-.015-.009-.02-.014l-.008-.009.586-.404zm-.536-.278a.633.633 0 00-.535.276l.584.406-.008.009a.077.077 0 01-.02.013c-.017.008-.027.008-.021.008v-.711zm-.534.274c-.116.166-.15.37-.151.561l.711.003c0-.059.006-.099.012-.126s.012-.033.01-.03l-.582-.408zm-.151.563v.074h.711v-.074h-.711zm0 .074c0 .192.034.391.145.558l.592-.394c-.003-.004-.026-.045-.026-.163h-.711zm.145.558a.633.633 0 00.542.286v-.711c-.005 0 .005-.001.023.008a.078.078 0 01.027.022l-.592.394zm.542.286a.633.633 0 00.535-.277l-.586-.402c.001-.001.003-.005.009-.009s.013-.01.021-.014c.017-.009.028-.008.022-.008v.711zm.535-.278c.113-.166.146-.368.147-.559l-.711-.003c0 .059-.006.1-.012.128s-.013.036-.012.034l.588.4zm.148-.561v-.074h-.711v.074h.711zm.912.185l-.216.282.003.002.213-.284zm-.225-.1l-.11.338.002.001.108-.339zm-.258-.104l-.169.313.169-.313zm-.189-.594l-.288-.208v.001l.289.207zm.199-.152l-.137-.328h-.001l.137.328zm.581.006l-.151.322.002.001.148-.323zm.197.165l-.298.194.001.002.297-.196zm.071.244v.356h.356v-.356h-.356zm-.313 0h-.356v.356h.356v-.356zm-.065-.161l-.236.266.002.002.234-.268zm-.363-.01l.214.284.003-.002-.217-.282zm.011.251l-.199.295.002.001.197-.296zm.219.094l-.103.34.102-.34zm.362.804l.213.285.001-.001-.214-.284zm-.72.048l-.146.324.002.001.144-.325zm-.22-.176l-.295.198.001.002.294-.2zm-.075-.258v-.356h-.356v.356h.356zm.314 0h.356v-.356H26.9v.356zm.474.206l.207.289.003-.002-.21-.287zm.418-.127a.514.514 0 00-.205-.42l-.427.569a.217.217 0 01-.063-.078.168.168 0 01-.017-.071h.711zm-.202-.418a1.116 1.116 0 00-.333-.156l-.217.677c.046.015.079.027.102.037.024.011.026.014.016.006l.433-.564zm-.331-.155a1.244 1.244 0 01-.199-.079l-.337.626c.089.048.197.09.315.129l.221-.676zm-.199-.08c-.05-.027-.066-.048-.07-.052l-.001-.002v-.002-.007h-.711c0 .322.191.551.445.689l.338-.626zm-.071-.063v-.008-.001l.001-.002-.578-.415a.721.721 0 00-.135.426h.711zm.001-.011c.002-.003.012-.016.048-.031l-.275-.656a.81.81 0 00-.35.271l.577.416zm.047-.03a.396.396 0 01.155-.027v-.711c-.148 0-.292.025-.428.081l.273.657zm.155-.027c.065 0 .108.012.139.026l.301-.644a1.03 1.03 0 00-.44-.093v.711zm.142.027c.029.014.041.026.047.036l.596-.388a.812.812 0 00-.347-.295l-.297.646zm.048.038c.006.01.012.022.012.048h.711a.791.791 0 00-.13-.44l-.593.392zm.368-.307h-.313v.711h.313v-.711zm.043.355c0-.15-.051-.31-.187-.429l-.468.536a.168.168 0 01-.056-.106h.711zm-.185-.427a.623.623 0 00-.421-.148v.711c.011 0 .009.001-.002-.002a.142.142 0 01-.05-.029l.472-.532zm-.421-.148a.64.64 0 00-.395.123l.434.563c-.02.016-.038.022-.046.024s-.006 0 .008 0v-.711zm-.392.12a.507.507 0 00-.205.411h.711c0 .022-.005.054-.022.088s-.039.056-.056.069l-.428-.568zm-.205.411c0 .193.106.335.23.419l.398-.589a.179.179 0 01.051.056.229.229 0 01.032.114h-.711zm.232.42c.092.061.204.105.314.138l.206-.681a.562.562 0 01-.125-.049l-.394.592zm.315.138a.637.637 0 01.243.113l.496-.509c-.14-.137-.333-.224-.534-.285l-.205.681zm.243.114c.008.008.01.012.011.014s.004.01.004.027h.711a.75.75 0 00-.229-.55l-.496.509zm.014.041l-.002.02v.002l.001-.002-.007.006.429.567a.72.72 0 00.29-.593h-.711zm-.006.025c-.019.014-.07.041-.188.041v.711c.218 0 .435-.048.614-.182l-.426-.569zm-.188.04a.43.43 0 01-.175-.033l-.287.65c.146.065.302.094.462.094v-.711zm-.173-.032a.171.171 0 01-.072-.052l-.587.401a.858.858 0 00.368.3l.291-.649zm-.071-.05c-.007-.01-.014-.026-.014-.06h-.711c0 .162.042.318.136.457l.59-.397zm-.37.295h.314v-.711h-.314v.711zm-.042-.355c0 .157.05.333.202.461.14.117.312.146.453.146v-.711c-.026 0-.037-.003-.036-.003s.018.006.039.023a.16.16 0 01.046.063c.008.019.006.029.006.022h-.711zm.656.606a.65.65 0 00.381-.111l-.414-.578c.02-.015.037-.02.044-.022s.004 0-.011 0v.711zm.384-.113a.504.504 0 00.208-.414h-.711a.209.209 0 01.083-.159l.421.573zm1.52-1.28v.356h.356v-.356h-.356zm-.465 0V19.9h-.356v.356h.356zm0 1.264v.356h.356v-.356h-.356zm-.312 0h-.356v.356h.356v-.356zm0-1.264h.356V19.9h-.356v.356zm-.459 0h-.356v.356h.356v-.356zm0-.253v-.356h-.356v.356h.356zm1.236 0h.356v-.356h-.356v.356zm0-.102h-.465v.711h.465v-.711zm-.82.355v1.264h.711v-1.264h-.711zm.355.908h-.313v.711h.313v-.711zm.043.356v-1.264h-.711v1.264h.711zm-.355-1.619h-.458v.711h.458v-.711zm-.103.355v-.253h-.711v.253h.711zm-.356.103h1.235v-.711h-1.235v.711zm.88-.356v.253h.711v-.253h-.711zm1.448.86v.356h.356v-.356h-.356zm-.6 0v-.356h-.356v.356h.356zm0 .406h-.356v.356h.356v-.356zm.704 0h.356v-.356H30.3v.356zm0 .251v.356h.356v-.356H30.3zm-1.017 0h-.356v.356h.356v-.356zm0-1.517v-.356h-.356v.356h.356zm1.015 0h.356v-.356h-.356v.356zm0 .253v.356h.356v-.356h-.356zm-.702 0V19.9h-.356v.356h.356zm0 .362h-.356v.356h.356v-.356zm.6 0h.356v-.356h-.356v.356zm0-.111h-.6v.711h.6v-.711zm-.956.356v.406h.711v-.406h-.711zm.356.761h.704v-.711h-.704v.711zm.348-.355v.251h.711v-.251h-.711zm.356-.105h-1.017v.711H30.3v-.711zm-.661.356v-1.517h-.711v1.517h.711zm-.356-1.161h1.015v-.711h-1.015v.711zm.659-.356v.253h.711v-.253h-.711zm.356-.102h-.702v.711h.702v-.711zm-1.058.355v.361h.711v-.361h-.711zm.356.717h.6v-.711h-.6v.711zm.244-.355v.245h.711v-.245h-.711zm1.204.347l.316-.162-.099-.193h-.217v.356zm-.248 0v-.356h-.356v.356h.356zm0 .555v.356h.356v-.356h-.356zm-.313 0h-.356v.356h.356v-.356zm0-1.517v-.356h-.356v.356h.356zm1.056.718l-.298-.194v.001l.299.193zm-.203.164l-.146-.324-.346.156.177.335.314-.166zm.328.62h.356v-.088l-.041-.078-.314.166zm0 .015v.356h.356v-.356h-.356zm-.335 0l-.316.162.099.193h.217v-.356zm-.533-.809h-.356v.356h.356v-.356zm.434-.059l.241.262.002-.002-.243-.26zm.003-.334l-.254.249.002.002.251-.251zm-.437-.062V19.9h-.356v.356h.356zm.248.353h-.249v.711h.249v-.711zm-.604.356v.555h.711v-.555h-.711zm.356.199h-.313v.711h.313v-.711zm.043.356v-1.517h-.711v1.517h.711zm-.356-1.161h.564v-.711h-.564v.711zm.564 0c.131 0 .177.03.189.039l.451-.549c-.183-.15-.413-.201-.64-.201v.711zm.188.039c.006.005.007.007.009.01.002.005.007.02.007.053h.711a.767.767 0 00-.276-.613l-.451.549zm.016.063c0 .026-.003.043-.005.053s-.005.013-.005.013l.596.388a.82.82 0 00.125-.453h-.711zm-.01.067l-.009.009a.218.218 0 01-.041.024l.292.648a.808.808 0 00.356-.296l-.597-.386zm-.219.524l.328.62.628-.333-.328-.62-.628.333zm.287.453v.015h.711v-.015h-.711zm.355-.341h-.335v.711h.335v-.711zm-.019.194l-.284-.555-.633.324.284.555.633-.324zm-.849-.291h.252v-.711h-.252v.711zm.252 0a.611.611 0 00.423-.153l-.481-.524a.149.149 0 01.053-.032c.012-.004.016-.003.006-.003v.711zm.425-.155a.571.571 0 00.177-.425h-.711c0-.001 0-.015.008-.035a.148.148 0 01.04-.059l.486.519zm.177-.426a.58.58 0 00-.166-.42l-.503.503a.164.164 0 01-.037-.057c-.006-.018-.006-.028-.006-.026h.711zm-.163-.418a.604.604 0 00-.44-.168v.711c.014 0 .012.002-.002-.003a.165.165 0 01-.065-.042l.507-.499zm-.44-.167h-.251v.711h.251v-.711zm-.607.355v.455h.711v-.455h-.711zm2.249.729v-.356h-.356v.356h.356zm0 .535v.356h.356v-.356h-.356zm-.312 0h-.356v.356h.356v-.356zm0-1.517v-.356h-.356v.356h.356zm.891.063l-.155.32h.001l.154-.321zm.2.178l-.304.184.001.001.304-.185zm-.083.613l.229.272-.229-.272zm-.696-.125h-.356v.356h.356v-.356zm.468-.058l-.236-.266-.002.002.238.264zm-.181-.418l.006-.355h-.006v.356zm-.287 0V19.9h-.356v.356h.356zm-.355.729v.534h.711v-.534h-.711zm.355.179h-.313v.711h.313v-.711zm.043.356v-1.517h-.711v1.517h.711zm-.355-1.161h.592v-.711h-.592v.711zm.591 0c.07 0 .116.013.145.027l.31-.64a1.036 1.036 0 00-.455-.098v.711zm.147.027a.105.105 0 01.049.041l.609-.367a.815.815 0 00-.351-.315l-.308.641zm.05.043a.14.14 0 01.018.076h.711a.842.842 0 00-.122-.446l-.607.37zm.018.076c0 .057-.014.07-.027.08l.459.544a.79.79 0 00.279-.624h-.711zm-.027.08c-.018.015-.067.044-.193.044v.711c.234 0 .466-.056.651-.212l-.458-.544zm-.193.045h-.274v.711h.274v-.711zm-.274.458h.279v-.711h-.279v.711zm.279 0a.624.624 0 00.427-.15l-.477-.528a.134.134 0 01.054-.032c.01-.003.01-.001-.004-.001v.711zm.425-.148a.565.565 0 00.185-.432h-.711c0 .001 0-.013.008-.034a.186.186 0 01.045-.065l.472.532zm.185-.433a.605.605 0 00-.164-.426l-.514.491c-.012-.013-.022-.029-.028-.044s-.005-.023-.005-.021h.711zm-.164-.425a.6.6 0 00-.432-.181l-.013.711c.004 0-.004.001-.02-.006a.144.144 0 01-.05-.034l.514-.491zm-.438-.181h-.286v.711h.286v-.711zm-.642.355v.476h.711v-.476h-.711zm2.332.607v.356h.356v-.356h-.356zm-.6 0v-.356h-.356v.356h.356zm0 .406h-.356v.356h.356v-.356zm.705 0h.356v-.356h-.356v.356zm0 .251v.356h.356v-.356h-.356zm-1.017 0h-.356v.356h.356v-.356zm0-1.517v-.356h-.356v.356h.356zm1.014 0h.356v-.356h-.356v.356zm0 .253v.356h.356v-.356h-.356zm-.702 0V19.9h-.356v.356h.356zm0 .362h-.356v.356h.356v-.356zm.6 0h.356v-.356h-.356v.356zm0-.111h-.6v.711h.6v-.711zm-.955.356v.406h.711v-.406h-.711zm.355.761h.704v-.711h-.704v.711zm.349-.355v.251h.711v-.251h-.711zm.356-.105h-1.017v.711h1.017v-.711zm-.662.356v-1.517h-.711v1.517h.711zm-.355-1.161h1.015v-.711h-1.015v.711zm.659-.356v.253h.711v-.253h-.711zm.355-.102h-.702v.711h.702v-.711zm-1.057.355v.361h.711v-.361h-.711zm.355.717h.6v-.711h-.6v.711zm.245-.355v.245h.711v-.245h-.711zm1.805-.362v.356h.356v-.356h-.356zm-.464 0V19.9h-.356v.356h.356zm0 1.264v.356h.356v-.356h-.356zm-.313 0h-.356v.356h.356v-.356zm0-1.264h.356V19.9h-.356v.356zm-.458 0h-.356v.356h.356v-.356zm0-.253v-.356h-.356v.356h.356zm1.235 0h.356v-.356h-.356v.356zm0-.102h-.464v.711h.464v-.711zm-.82.355v1.264h.711v-1.264h-.711zm.356.908h-.313v.711h.313v-.711zm.043.356v-1.264h-.711v1.264h.711zm-.356-1.619h-.458v.711h.458v-.711zm-.102.355v-.253h-.711v.253h.711zm-.356.103h1.235v-.711h-1.235v.711zm.88-.356v.253h.711v-.253h-.711zm1.447.86v.356h.356v-.356h-.356zm-.6 0v-.356h-.356v.356h.356zm0 .406h-.356v.356h.356v-.356zm.704 0h.356v-.356h-.356v.356zm0 .251v.356h.356v-.356h-.356zm-1.017 0h-.356v.356h.356v-.356zm0-1.517v-.356h-.356v.356h.356zm1.015 0h.356v-.356h-.356v.356zm0 .253v.356h.356v-.356h-.356zm-.702 0V19.9h-.356v.356h.356zm0 .362h-.356v.356h.356v-.356zm.6 0h.356v-.356h-.356v.356zm0-.111h-.6v.711h.6v-.711zm-.956.356v.406h.711v-.406h-.711zm.356.761h.704v-.711h-.704v.711zm.349-.355v.251h.711v-.251h-.711zm.355-.105h-1.017v.711h1.017v-.711zm-.661.356v-1.517h-.711v1.517h.711zm-.356-1.161h1.015v-.711h-1.015v.711zm.66-.356v.253h.711v-.253h-.711zm.355-.102h-.702v.711h.702v-.711zm-1.058.355v.361h.711v-.361h-.711zm.356.717h.6v-.711h-.6v.711zm.245-.355v.245h.711v-.245h-.711zm1.204.347l.316-.162-.099-.193h-.218v.356zm-.249 0v-.356h-.356v.356h.356zm0 .555v.356h.356v-.356h-.356zm-.313 0h-.356v.356h.356v-.356zm0-1.517v-.356h-.356v.356h.356zm1.057.718l-.298-.194-.001.001.299.193zm-.203.164l-.146-.324-.346.156.177.335.314-.166zm.328.62h.356v-.088l-.042-.078-.314.166zm0 .015v.356h.356v-.356h-.356zm-.336 0l-.316.162.099.193h.217v-.356zm-.533-.809h-.356v.356h.356v-.356zm.434-.059l.241.262.002-.002-.243-.26zm.004-.334l-.254.249.002.002.251-.251zm-.438-.062V19.9h-.356v.356h.356zm.249.353h-.249v.711h.249v-.711zm-.605.356v.555h.711v-.555h-.711zm.356.199h-.313v.711h.313v-.711zm.043.356v-1.517h-.711v1.517h.711zm-.356-1.161h.564v-.711h-.564v.711zm.564 0c.131 0 .177.03.189.039l.451-.549c-.183-.15-.413-.201-.64-.201v.711zm.189.039c.006.005.007.007.008.01.002.005.007.02.007.053h.711a.767.767 0 00-.276-.613l-.451.549zm.016.063c0 .026-.003.043-.005.053s-.005.013-.005.013l.596.388a.82.82 0 00.125-.453h-.711zm-.011.067l-.009.009a.218.218 0 01-.041.024l.292.648a.808.808 0 00.356-.296l-.597-.386zm-.218.524l.328.62.628-.333-.328-.62-.628.333zm.286.453v.015h.711v-.015h-.711zm.356-.341h-.336v.711h.336v-.711zm-.019.194l-.284-.555-.633.324.284.555.633-.324zm-.85-.291h.252v-.711h-.252v.711zm.252 0a.611.611 0 00.423-.153l-.481-.524a.157.157 0 01.053-.032c.012-.004.016-.003.006-.003v.711zm.425-.155a.571.571 0 00.177-.425h-.711c0-.001 0-.015.008-.035a.159.159 0 01.04-.059l.486.519zm.177-.426a.583.583 0 00-.165-.42l-.503.503a.15.15 0 01-.037-.057c-.006-.018-.006-.028-.006-.026h.711zm-.163-.418a.604.604 0 00-.44-.168v.711c.015 0 .012.002-.001-.003a.165.165 0 01-.065-.042l.507-.499zm-.44-.167h-.251v.711h.251v-.711zm-.607.355v.455h.711v-.455h-.711zm2.13.73l-.216.282.003.002.213-.284zm-.225-.1l-.111.338.002.001.109-.339zm-.257-.104l-.169.313.169-.313zm-.19-.594l-.289-.208v.001l.289.207zm.199-.152l-.137-.328h-.001l.137.328zm.581.006l-.15.322.002.001.148-.323zm.197.165l-.298.194.001.002.297-.196zm.071.244v.356h.356v-.356h-.356zm-.313 0h-.356v.356h.356v-.356zm-.065-.161l-.236.266.002.002.234-.268zm-.363-.01l.214.284.003-.002-.217-.282zm.011.251l-.199.295.002.001.197-.296zm.22.094l-.103.34.103-.34zm.361.804l.213.285.001-.001-.214-.284zm-.72.048l-.146.324.002.001.144-.325zm-.219-.176l-.295.198.001.002.294-.2zm-.075-.258v-.356h-.356v.356h.356zm.313 0h.356v-.356h-.356v.356zm.474.206l.207.289.003-.002-.211-.287zm.418-.127a.511.511 0 00-.205-.42l-.427.569a.217.217 0 01-.063-.078.168.168 0 01-.017-.071h.711zm-.202-.418a1.116 1.116 0 00-.333-.156l-.217.677c.046.015.079.027.102.037.025.011.026.014.016.006l.433-.564zm-.331-.155a1.244 1.244 0 01-.199-.079l-.337.626c.089.048.197.09.315.129l.221-.676zm-.198-.08c-.05-.027-.066-.048-.07-.052l-.001-.002v-.002l-.001-.007h-.711c0 .322.191.551.445.689l.338-.626zm-.072-.063l.001-.008v-.001l.001-.002-.578-.415a.721.721 0 00-.135.426h.711zm.002-.011c.002-.003.012-.016.048-.031l-.275-.656a.81.81 0 00-.35.271l.577.416zm.046-.03a.396.396 0 01.155-.027v-.711c-.148 0-.293.025-.428.081l.273.657zm.156-.027c.064 0 .108.012.139.026l.301-.644a1.03 1.03 0 00-.44-.093v.711zm.141.027c.029.014.041.026.047.036l.596-.388a.806.806 0 00-.347-.295l-.297.646zm.048.038c.006.01.012.022.012.048h.711a.791.791 0 00-.13-.44l-.593.392zm.368-.307h-.313v.711h.313v-.711zm.043.355c0-.15-.051-.31-.187-.429l-.468.536a.168.168 0 01-.046-.065c-.01-.023-.01-.039-.01-.041h.711zm-.185-.427a.623.623 0 00-.421-.148v.711c.011 0 .009.001-.002-.002a.142.142 0 01-.05-.029l.473-.532zm-.42-.148a.64.64 0 00-.395.123l.434.563c-.02.016-.038.022-.046.024s-.006 0 .007 0v-.711zm-.393.12a.507.507 0 00-.205.411h.711c0 .022-.005.054-.022.088s-.039.056-.056.069l-.428-.568zm-.205.411c0 .193.107.335.23.419l.398-.589a.179.179 0 01.051.056.229.229 0 01.032.114h-.711zm.233.42c.092.061.203.105.314.138l.206-.681a.585.585 0 01-.126-.049l-.394.592zm.314.138a.637.637 0 01.243.113l.496-.509c-.14-.137-.332-.224-.534-.285l-.205.681zm.243.114c.008.008.01.012.011.014s.004.01.004.027h.711a.75.75 0 00-.229-.55l-.496.509zm.014.041l-.001.02c0 .003-.001.003-.001.002l.001-.002-.007.006.429.567a.72.72 0 00.29-.593h-.711zm-.006.025c-.019.014-.07.041-.188.041v.711c.218 0 .435-.048.614-.182l-.426-.569zm-.188.04a.43.43 0 01-.175-.033l-.288.65c.146.065.302.094.463.094v-.711zm-.173-.032a.171.171 0 01-.072-.052l-.588.401a.864.864 0 00.368.3l.292-.649zm-.071-.05c-.007-.01-.014-.026-.014-.06h-.711c0 .162.042.318.135.457l.59-.397zm-.369.295h.313v-.711h-.313v.711zm-.043-.355c0 .157.05.333.203.461.14.117.312.146.453.146v-.711c-.026 0-.037-.003-.036-.003s.018.006.039.023a.16.16 0 01.046.063c.008.019.006.029.006.022h-.711zm.656.606a.65.65 0 00.381-.111l-.414-.578c.02-.015.037-.02.044-.022s.004 0-.011 0v.711zm.384-.113a.504.504 0 00.208-.414h-.711a.209.209 0 01.083-.159l.421.573z"/></symbol><symbol id="icon-Client-5" viewBox="0 0 60 32"><path fill="var(--color1, #afb1b8)" d="M21.507 21.788a.559.559 0 01.123.359.576.576 0 01-.191.454.829.829 0 01-.554.166h-.974V20.49h.954a.814.814 0 01.529.151.515.515 0 01.185.426.526.526 0 01-.111.348.52.52 0 01-.29.178.555.555 0 01.329.195zm-1.143-.344h.408a.381.381 0 00.259-.076.274.274 0 00.088-.223.277.277 0 00-.086-.223.394.394 0 00-.267-.077h-.401v.597zm.707.873a.286.286 0 00.096-.231.284.284 0 00-.098-.233.418.418 0 00-.277-.082h-.428v.626h.433a.426.426 0 00.274-.079zM23.457 22.767l-.531-.89h-.199v.89h-.456V20.49h.864a.85.85 0 01.602.194.732.732 0 01.064.942.699.699 0 01-.412.231l.565.91h-.496zm-.73-1.201h.373c.259 0 .389-.115.389-.345.003-.047-.004-.094-.021-.138s-.042-.084-.074-.118a.402.402 0 00-.294-.092h-.378l.004.693zM25.952 22.308h-.91l-.161.458h-.479l.835-2.252h.517l.832 2.252h-.479l-.157-.458zm-.122-.345l-.332-.961-.332.961h.665zM29.076 22.767h-.453l-1.016-1.549v1.549h-.452V20.49h.452l1.016 1.558V20.49h.453v2.277zM31.662 22.222a.98.98 0 01-.41.402 1.34 1.34 0 01-.637.144h-.807v-2.277h.807c.221-.006.439.042.637.14a.969.969 0 01.41.397 1.331 1.331 0 010 1.194zm-.519-.055a.837.837 0 000-1.086.785.785 0 00-.567-.194h-.315v1.474h.315a.785.785 0 00.567-.194zM26.236 7.822s5.849 2.217 5.725 5.426v5.427s-5.845-2.218-5.723-5.427l-.002-5.426zM37.173 17.404a7.998 7.998 0 013.716-1.375V14.33a7.629 7.629 0 00-3.716 3.074z"/><path fill="var(--color1, #afb1b8)" d="M36.509 17.916a7.959 7.959 0 014.38-3.942V9.079s-8.33 3.158-8.154 7.728v7.726s.371-.141.955-.406c0-.247 0-.496.027-.747a8.04 8.04 0 012.792-5.465z"/><path fill="var(--color1, #afb1b8)" d="M35.717 20.786a8.016 8.016 0 01.291-1.582 7.481 7.481 0 00-1.764 4.667 24.023 24.023 0 001.602-.848 7.996 7.996 0 01-.129-2.237zM36.048 20.814a7.687 7.687 0 00.103 2.026c2.276-1.367 4.833-3.48 4.735-6.033v-.223a7.458 7.458 0 00-4.33 2.031 7.652 7.652 0 00-.508 2.198z"/></symbol><symbol id="icon-Client-6" viewBox="0 0 60 32"><path fill="var(--color1, #afb1b8)" d="M30.485 15.415a1.155 1.155 0 01-.203-.731v-1.06c0-.325.067-.572.202-.741s.365-.253.693-.252c.308 0 .526.072.655.216a.938.938 0 01.194.634v.249h-.55v-.252a1.361 1.361 0 00-.016-.247.246.246 0 00-.079-.147.294.294 0 00-.199-.057.32.32 0 00-.21.06.285.285 0 00-.091.162 1.357 1.357 0 00-.022.262v1.287a.707.707 0 00.071.361c.027.038.065.069.11.088s.094.026.142.02c.07.005.14-.015.195-.058a.262.262 0 00.082-.156c.013-.085.019-.172.017-.258v-.261h.55v.238a1.04 1.04 0 01-.19.667c-.126.157-.342.236-.659.236s-.556-.084-.692-.259zM32.777 15.425c-.139-.165-.209-.406-.209-.724v-1.115c0-.315.069-.553.209-.715s.371-.242.697-.242c.324 0 .555.081.694.242s.21.4.21.715v1.116c0 .315-.071.557-.212.723s-.371.249-.692.249c-.32 0-.557-.084-.697-.248zm.954-.267a.674.674 0 00.066-.33v-1.366a.664.664 0 00-.065-.324c-.028-.039-.067-.07-.112-.089s-.096-.026-.145-.019a.276.276 0 00-.258.108.639.639 0 00-.066.324v1.372a.661.661 0 00.066.33.34.34 0 00.257.111.356.356 0 00.257-.111v-.006zM35.04 12.662h.593l.446 2.058.456-2.058h.577l.058 2.971h-.426l-.045-2.065-.44 2.065h-.342l-.456-2.072-.042 2.072h-.431l.054-2.971zM37.833 12.662h.923c.532 0 .797.281.797.844 0 .539-.28.808-.84.807h-.314v1.32h-.57l.004-2.971zm.789 1.269a.41.41 0 00.313-.093.518.518 0 00.082-.335 1.024 1.024 0 00-.027-.27.231.231 0 00-.114-.142.538.538 0 00-.254-.047h-.221v.888h.221zM40.375 12.662h.612l.628 2.971h-.531l-.124-.685h-.546l-.128.685h-.539l.628-2.971zm.523 1.941l-.213-1.247-.213 1.247h.426zM42.122 12.662h.399l.763 1.695v-1.695h.473v2.971h-.379l-.768-1.769v1.769h-.489l.001-2.971zM44.865 14.5l-.635-1.834h.534l.388 1.178.363-1.178h.523l-.627 1.834v1.133h-.547V14.5zM31.365 16.931v.155H30.9v1.207h-.195v-1.207h-.467v-.155h1.127zM32.823 18.294h-.15a.064.064 0 01-.042-.013.075.075 0 01-.025-.031l-.134-.324h-.645l-.134.324a.102.102 0 01-.02.037.064.064 0 01-.042.013h-.15l.57-1.362h.198l.577 1.357zm-.944-.506h.538l-.228-.555a1.007 1.007 0 01-.042-.128l-.022.072-.02.057-.226.553zM33.805 18.16a.56.56 0 00.198-.016.596.596 0 00.082-.025l.076-.033v-.306h-.228c-.006 0-.011 0-.017-.002s-.01-.005-.014-.008-.007-.007-.009-.011-.003-.009-.003-.014v-.105h.442v.522c-.036.024-.074.046-.114.065s-.083.035-.126.046a.99.99 0 01-.142.028 1.539 1.539 0 01-.166.009.78.78 0 01-.287-.051.69.69 0 01-.228-.142.663.663 0 01-.199-.499.773.773 0 01.051-.285.633.633 0 01.375-.357.88.88 0 01.305-.051c.053 0 .106.004.158.012a.715.715 0 01.349.16l-.055.084c-.004.008-.011.014-.019.019s-.017.007-.026.007a.06.06 0 01-.035-.011.928.928 0 01-.056-.032.533.533 0 00-.181-.067.878.878 0 00-.145-.012.61.61 0 00-.22.038.467.467 0 00-.273.277.693.693 0 000 .454.502.502 0 00.28.28.574.574 0 00.226.027zM35.621 18.138h.622v.155h-.812V16.93h.195l-.005 1.207zM36.891 18.294h-.195v-1.363h.195v1.363zM37.616 16.938a.088.088 0 01.029.025l.833 1.027a.4.4 0 010-.049v-1.015h.17v1.368h-.098a.085.085 0 01-.042-.008.13.13 0 01-.031-.026l-.832-1.026v1.059h-.163V16.93h.101c.011 0 .022.002.032.006zM40.083 16.931v.15h-.691v.45h.56v.145h-.56v.465h.691v.15h-.891v-1.359h.891zM19.663 8.517l8.652 2.326v8.15l-8.652-2.325V8.517zm-.555-.695v9.242l9.761 2.625v-9.241l-9.761-2.626z"/><path fill="var(--color1, #afb1b8)" d="M24.34 23.979l-9.762-2.627v-9.241l9.762 2.626v9.242z"/><path fill="var(--color1, #afb1b8)" d="M19.27 8.412l8.54 2.297-3.632 3.439-8.541-2.298 3.633-3.438zm-.162-.59l-4.531 4.289 9.762 2.626 4.53-4.289-9.761-2.626zM24.889 23.459l3.98-3.769-3.98-1.071v4.84z"/></symbol></defs></svg>