<svg width="20" height="20" viewBox="0 0 20 20" fill="none" xmlns="http://www.w3.org/2000/svg"><g clip-path="url(#clip0)"><path d="M19.9804 5.88005C19.9336 4.81738 19.7617 4.0868 19.5155 3.45374 19.2616 2.78176 18.8709 2.18014 18.359 1.68002 17.8589 1.1721 17.2533.777435 16.5891.527447 15.9524.281274 15.2256.109427 14.1629.0625732 13.0923.0117516 12.7524.0 10.0371.0 7.3217.0 6.98182.0117516 5.91517.0586052 4.8525.105459 4.12192.277459 3.48901.523479 2.81689.777435 2.21527 1.16814 1.71514 1.68002 1.20723 2.18014.812712 2.78573.562572 3.44992.3164 4.0868.144553 4.81341.0976989 5.87609.0468773 6.9467.0351257 7.28658.0351257 10.002.0351257 12.7173.0468773 13.0572.0937309 14.1239.140584 15.1865.312584 15.9171.558757 16.5502.812712 17.2221 1.20723 17.8238 1.71514 18.3239 2.21527 18.8318 2.82085 19.2265 3.48505 19.4765 4.12192 19.7226 4.84853 19.8945 5.91136 19.9413 6.97785 19.9883 7.31788 19.9999 10.0333 19.9999 12.7486 19.9999 13.0885 19.9883 14.1552 19.9413 15.2178 19.8945 15.9484 19.7226 16.5813 19.4765 17.9254 18.9568 18.9881 17.8941 19.5078 16.5502 19.7538 15.9133 19.9258 15.1865 19.9726 14.1239 20.0195 13.0572 20.0312 12.7173 20.0312 10.002 20.0312 7.28658 20.0273 6.9467 19.9804 5.88005zM18.1794 14.0457C18.1363 15.0225 17.9723 15.5499 17.8355 15.9015 17.4995 16.7728 16.8079 17.4643 15.9367 17.8004 15.585 17.9372 15.0538 18.1012 14.0808 18.1441 13.0259 18.1911 12.7096 18.2027 10.041 18.2027 7.37252 18.2027 7.05218 18.1911 6.0011 18.1441 5.02435 18.1012 4.4969 17.9372 4.14527 17.8004 3.71168 17.6402 3.31701 17.3862 2.99667 17.0541 2.66457 16.7298 2.41062 16.3391 2.25037 15.9055 2.11362 15.5539 1.94956 15.0225 1.90667 14.0497 1.85967 12.9948 1.84807 12.6783 1.84807 10.0097 1.84807 7.34122 1.85967 7.02087 1.90667 5.96995 1.94956 4.99319 2.11362 4.46575 2.25037 4.11412 2.41062 3.68038 2.66457 3.28586 3.00064 2.96536 3.3248 2.63327 3.7155 2.37931 4.14924 2.21921 4.50087 2.08247 5.03228 1.9184 6.00507 1.87537 7.05996 1.82851 7.37649 1.81676 10.0449 1.81676 12.7173 1.81676 13.0337 1.82851 14.0848 1.87537 15.0615 1.9184 15.589 2.08247 15.9406 2.21921 16.3742 2.37931 16.7689 2.63327 17.0892 2.96536 17.4213 3.28967 17.6753 3.68038 17.8355 4.11412 17.9723 4.46575 18.1363 4.99701 18.1794 5.96995 18.2262 7.02484 18.238 7.34122 18.238 10.0097 18.238 12.6783 18.2262 12.9908 18.1794 14.0457z" fill="#fff"/><path d="M10.0371 4.86414C7.20071 4.86414 4.89938 7.16531 4.89938 10.0019 4.89938 12.8384 7.20071 15.1396 10.0371 15.1396 12.8737 15.1396 15.1748 12.8384 15.1748 10.0019 15.1748 7.16531 12.8737 4.86414 10.0371 4.86414zm0 8.47046C8.19699 13.3346 6.70439 11.8421 6.70439 10.0019 6.70439 8.16159 8.19699 6.66914 10.0371 6.66914 11.8774 6.66914 13.3698 8.16159 13.3698 10.0019 13.3698 11.8421 11.8774 13.3346 10.0371 13.3346z" fill="#fff"/><path d="M16.5775 4.6611C16.5775 5.32346 16.0405 5.86052 15.378 5.86052 14.7156 5.86052 14.1785 5.32346 14.1785 4.6611 14.1785 3.99858 14.7156 3.46167 15.378 3.46167 16.0405 3.46167 16.5775 3.99858 16.5775 4.6611z" fill="#fff"/></g><defs><clipPath id="clip0"><path d="M0 0h20v20H0z" fill="#fff"/></clipPath></defs></svg>