<svg width="20" height="20" viewBox="0 0 20 20" fill="none" xmlns="http://www.w3.org/2000/svg"><g clip-path="url(#clip0)"><path d="M19.995 20.0001V19.9993H20V12.6643C20 9.07593 19.2275 6.31177 15.0325 6.31177 13.0158 6.31177 11.6625 7.41843 11.11 8.4676H11.0517V6.64677H7.07417V19.9993H11.2158V13.3876C11.2158 11.6468 11.5458 9.96343 13.7017 9.96343 15.8258 9.96343 15.8575 11.9501 15.8575 13.4993v6.5008H19.995z" fill="#fff"/><path d="M.330002 6.64746H4.47667V20H.330002V6.64746z" fill="#fff"/><path d="M2.40167.0C1.07583.0.0 1.07583.0 2.40167.0 3.7275 1.07583 4.82583 2.40167 4.82583 3.7275 4.82583 4.80333 3.7275 4.80333 2.40167 4.8025 1.07583 3.72667.0 2.40167.0V0z" fill="#fff"/></g><defs><clipPath id="clip0"><path d="M0 0h20v20H0z" fill="#fff"/></clipPath></defs></svg>