<svg width="16" height="12" viewBox="0 0 16 12" fill="none" xmlns="http://www.w3.org/2000/svg"><path d="M14.5.0H1.50001C.672854.0.0.672853.0 1.50001V10.5C0 11.3271.672854 12 1.50001 12H14.5C15.3271 12 16 11.3271 16 10.5V1.50001C16 .672853 15.3271.0 14.5.0zm0 .999994C14.5679.999994 14.6325 1.01409 14.6916 1.0387L8 6.83838 1.30833 1.0387C1.36742 1.01412 1.43204.999994 1.49998.999994H14.5zM14.5 11H1.50001C1.22414 11 .999996 10.7759.999996 10.5V2.09521L7.67236 7.87792C7.76661 7.95944 7.8833 7.99999 8 7.99999 8.1167 7.99999 8.23339 7.95948 8.32764 7.87792L15 2.09521V10.5C15 10.7759 14.7759 11 14.5 11z" fill="#757575"/></svg>