<svg width="10" height="16" viewBox="0 0 10 16" fill="none" xmlns="http://www.w3.org/2000/svg"><path d="M8.5.0h-7C.672848.0.0.672848.0 1.5v13C0 15.3272.672848 16 1.5 16h7C9.32715 16 10 15.3272 10 14.5V1.5C10 .672848 9.32715.0 8.5.0zm-7 1h7C8.77588 1 9 1.22412 9 1.5V12H1V1.5C1 1.22412 1.22412 1 1.5 1zm7 14h-7C1.22412 15 1 14.7759 1 14.5V13H9v1.5C9 14.7759 8.77588 15 8.5 15z" fill="#757575"/><path d="M2.35355 13.7389C2.54882 13.9213 2.54882 14.2169 2.35355 14.3992 2.15828 14.5816 1.84172 14.5816 1.64645 14.3992 1.45118 14.2169 1.45118 13.9213 1.64645 13.7389 1.84172 13.5566 2.15828 13.5566 2.35355 13.7389z" fill="#757575"/></svg>