<svg aria-hidden="true" style="position: absolute; width: 0; height: 0; overflow: hidden;" version="1.1" xmlns="http://www.w3.org/2000/svg" xmlns:xlink="http://www.w3.org/1999/xlink">
<defs>
<symbol id="icon-facebook" viewBox="0 0 32 32">
<path fill="#fff" style="fill: var(--color1, #fff)" d="M21.329 5.313h2.921v-5.088c-0.504-0.069-2.237-0.225-4.256-0.225-4.212 0-7.097 2.649-7.097 7.519v4.481h-4.648v5.688h4.648v14.312h5.699v-14.311h4.46l0.708-5.688h-5.169v-3.919c0.001-1.644 0.444-2.769 2.735-2.769z"></path>
</symbol>
<symbol id="icon-instagram-2" viewBox="0 0 32 32">
<path fill="#fff" style="fill: var(--color1, #fff)" d="M31.969 9.408c-0.075-1.7-0.35-2.869-0.744-3.882-0.406-1.075-1.031-2.038-1.85-2.838-0.8-0.813-1.769-1.444-2.832-1.844-1.019-0.394-2.182-0.669-3.882-0.744-1.713-0.081-2.257-0.1-6.601-0.1s-4.888 0.019-6.595 0.094c-1.7 0.075-2.869 0.35-3.882 0.744-1.075 0.406-2.038 1.031-2.838 1.85-0.813 0.8-1.444 1.769-1.844 2.832-0.394 1.019-0.669 2.182-0.744 3.882-0.081 1.713-0.1 2.257-0.1 6.601s0.019 4.888 0.094 6.595c0.075 1.7 0.35 2.869 0.744 3.882 0.406 1.075 1.038 2.038 1.85 2.838 0.8 0.813 1.769 1.444 2.832 1.844 1.019 0.394 2.182 0.669 3.882 0.744 1.706 0.075 2.25 0.094 6.595 0.094s4.888-0.019 6.595-0.094c1.7-0.075 2.869-0.35 3.882-0.744 2.151-0.832 3.851-2.532 4.682-4.682 0.394-1.019 0.669-2.182 0.744-3.882 0.075-1.707 0.094-2.251 0.094-6.595s-0.006-4.888-0.081-6.595zM29.087 22.473c-0.069 1.563-0.331 2.407-0.55 2.969-0.538 1.394-1.644 2.5-3.038 3.038-0.563 0.219-1.413 0.481-2.969 0.55-1.688 0.075-2.194 0.094-6.464 0.094s-4.782-0.019-6.464-0.094c-1.563-0.069-2.407-0.331-2.969-0.55-0.694-0.256-1.325-0.663-1.838-1.194-0.531-0.519-0.938-1.144-1.194-1.838-0.219-0.563-0.481-1.413-0.55-2.969-0.075-1.688-0.094-2.194-0.094-6.464s0.019-4.782 0.094-6.464c0.069-1.563 0.331-2.407 0.55-2.969 0.256-0.694 0.663-1.325 1.2-1.838 0.519-0.531 1.144-0.938 1.838-1.194 0.563-0.219 1.413-0.481 2.969-0.55 1.688-0.075 2.194-0.094 6.464-0.094 4.276 0 4.782 0.019 6.464 0.094 1.563 0.069 2.407 0.331 2.969 0.55 0.694 0.256 1.325 0.662 1.838 1.194 0.531 0.519 0.938 1.144 1.194 1.838 0.219 0.563 0.481 1.413 0.55 2.969 0.075 1.688 0.094 2.194 0.094 6.464s-0.019 4.77-0.094 6.458z"></path>
<path fill="#fff" style="fill: var(--color1, #fff)" d="M16.059 7.783c-4.538 0-8.22 3.682-8.22 8.22s3.682 8.22 8.22 8.22c4.539 0 8.22-3.682 8.22-8.22s-3.682-8.22-8.22-8.22zM16.059 21.335c-2.944 0-5.332-2.388-5.332-5.332s2.388-5.332 5.332-5.332c2.944 0 5.332 2.388 5.332 5.332s-2.388 5.332-5.332 5.332z"></path>
<path fill="#fff" style="fill: var(--color1, #fff)" d="M26.524 7.458c0 1.060-0.859 1.919-1.919 1.919s-1.919-0.859-1.919-1.919c0-1.060 0.859-1.919 1.919-1.919s1.919 0.859 1.919 1.919z"></path>
</symbol>
<symbol id="icon-linkedin" viewBox="0 0 32 32">
<path fill="#fff" style="fill: var(--color1, #fff)" d="M31.992 32v-0.001h0.008v-11.736c0-5.741-1.236-10.164-7.948-10.164-3.227 0-5.392 1.771-6.276 3.449h-0.093v-2.913h-6.364v21.364h6.627v-10.579c0-2.785 0.528-5.479 3.977-5.479 3.399 0 3.449 3.179 3.449 5.657v10.401h6.62z"></path>
<path fill="#fff" style="fill: var(--color1, #fff)" d="M0.528 10.636h6.635v21.364h-6.635v-21.364z"></path>
<path fill="#fff" style="fill: var(--color1, #fff)" d="M3.843 0c-2.121 0-3.843 1.721-3.843 3.843s1.721 3.879 3.843 3.879c2.121 0 3.843-1.757 3.843-3.879-0.001-2.121-1.723-3.843-3.843-3.843v0z"></path>
</symbol>
<symbol id="icon-mail" viewBox="0 0 32 32">
<path fill="#757575" style="fill: var(--color2, #757575)" d="M29 4h-26c-1.654 0-3 1.346-3 3v18c0 1.654 1.346 3 3 3h26c1.654 0 3-1.346 3-3v-18c0-1.654-1.346-3-3-3zM29 6c0.136 0 0.265 0.028 0.383 0.077l-13.383 11.599-13.383-11.599c0.118-0.049 0.247-0.077 0.383-0.077h26zM29 26h-26c-0.552 0-1-0.448-1-1v-16.81l13.345 11.565c0.188 0.163 0.422 0.244 0.655 0.244s0.467-0.081 0.655-0.244l13.345-11.565v16.81c0 0.552-0.448 1-1 1z"></path>
</symbol>
<symbol id="icon-smartphone" viewBox="0 0 32 32">
<path fill="#757575" style="fill: var(--color2, #757575)" d="M23 0h-14c-1.654 0-3 1.346-3 3v26c0 1.654 1.346 3 3 3h14c1.654 0 3-1.346 3-3v-26c0-1.654-1.346-3-3-3zM9 2h14c0.552 0 1 0.448 1 1v21h-16v-21c0-0.552 0.448-1 1-1zM23 30h-14c-0.552 0-1-0.448-1-1v-3h16v3c0 0.552-0.448 1-1 1z"></path>
<path fill="#757575" style="fill: var(--color2, #757575)" d="M10.707 27.478c0.391 0.365 0.391 0.956 0 1.321s-1.024 0.365-1.414 0c-0.391-0.365-0.391-0.956 0-1.321s1.024-0.365 1.414 0z"></path>
</symbol>
<symbol id="icon-twitter" viewBox="0 0 32 32">
<path fill="#fff" style="fill: var(--color1, #fff)" d="M32 6.078c-1.19 0.522-2.458 0.868-3.78 1.036 1.36-0.812 2.398-2.088 2.886-3.626-1.268 0.756-2.668 1.29-4.16 1.588-1.204-1.282-2.92-2.076-4.792-2.076-3.632 0-6.556 2.948-6.556 6.562 0 0.52 0.044 1.020 0.152 1.496-5.454-0.266-10.28-2.88-13.522-6.862-0.566 0.982-0.898 2.106-0.898 3.316 0 2.272 1.17 4.286 2.914 5.452-1.054-0.020-2.088-0.326-2.964-0.808 0 0.020 0 0.046 0 0.072 0 3.188 2.274 5.836 5.256 6.446-0.534 0.146-1.116 0.216-1.72 0.216-0.42 0-0.844-0.024-1.242-0.112 0.85 2.598 3.262 4.508 6.13 4.57-2.232 1.746-5.066 2.798-8.134 2.798-0.538 0-1.054-0.024-1.57-0.090 2.906 1.874 6.35 2.944 10.064 2.944 12.072 0 18.672-10 18.672-18.668 0-0.29-0.010-0.57-0.024-0.848 1.302-0.924 2.396-2.078 3.288-3.406z"></path>
</symbol>
<symbol id="icon-logo-1" viewBox="0 0 29 32">
<path fill="#afb1b8" style="fill: var(--color3, #afb1b8)" d="M3.84 0l4.677 4.428h13.046v12.351l4.677 4.428v-21.206h-22.4z"></path>
<path fill="#afb1b8" style="fill: var(--color3, #afb1b8)" d="M0 4.241v20.6h21.76v-8.188l-13.105-12.406-8.655-0.005zM17.615 21.828h-14.172v-13.854h1.002v12.916h13.17v0.938z"></path>
<path fill="#afb1b8" style="fill: var(--color3, #afb1b8)" d="M6.266 28.662l0.523-1.078h0.438l-0.763 1.438v0.837h-0.397v-0.837l-0.764-1.438h0.439l0.523 1.078zM8.513 29.329h-0.881l-0.184 0.53h-0.411l0.859-2.275h0.355l0.861 2.275h-0.412l-0.186-0.53zM7.743 29.010h0.659l-0.33-0.944-0.33 0.944zM10.071 29.244c0-0.105 0.029-0.202 0.086-0.289 0.057-0.089 0.17-0.193 0.339-0.314-0.088-0.111-0.151-0.206-0.186-0.284s-0.052-0.154-0.052-0.227c0-0.178 0.054-0.319 0.162-0.422s0.254-0.156 0.438-0.156c0.166 0 0.301 0.049 0.406 0.147 0.106 0.097 0.159 0.217 0.159 0.361 0 0.095-0.024 0.182-0.072 0.262-0.048 0.079-0.127 0.158-0.236 0.238l-0.155 0.113 0.439 0.519c0.064-0.125 0.095-0.264 0.095-0.417h0.33c0 0.28-0.066 0.51-0.197 0.689l0.334 0.395h-0.441l-0.128-0.152c-0.162 0.122-0.356 0.183-0.581 0.183s-0.405-0.059-0.541-0.178c-0.134-0.12-0.202-0.276-0.202-0.467zM10.824 29.587c0.128 0 0.248-0.043 0.359-0.128l-0.497-0.586-0.048 0.034c-0.125 0.095-0.188 0.203-0.188 0.325 0 0.105 0.034 0.191 0.102 0.256s0.158 0.098 0.272 0.098zM10.615 28.121c0 0.087 0.054 0.197 0.161 0.33l0.173-0.119 0.048-0.039c0.065-0.057 0.097-0.131 0.097-0.22 0-0.059-0.022-0.11-0.067-0.152-0.045-0.043-0.102-0.064-0.17-0.064-0.074 0-0.133 0.025-0.177 0.075s-0.066 0.113-0.066 0.189zM14.748 29.118c-0.023 0.243-0.113 0.432-0.269 0.569-0.156 0.135-0.364 0.203-0.623 0.203-0.181 0-0.341-0.043-0.48-0.128-0.137-0.086-0.244-0.209-0.319-0.367s-0.114-0.342-0.117-0.552v-0.212c0-0.215 0.038-0.404 0.114-0.567s0.185-0.29 0.327-0.378c0.143-0.088 0.307-0.133 0.494-0.133 0.251 0 0.453 0.068 0.606 0.205s0.242 0.329 0.267 0.578h-0.394c-0.019-0.164-0.067-0.281-0.144-0.353-0.076-0.073-0.188-0.109-0.336-0.109-0.172 0-0.304 0.063-0.397 0.189-0.092 0.125-0.139 0.309-0.141 0.552v0.202c0 0.246 0.044 0.433 0.131 0.563s0.218 0.194 0.387 0.194c0.155 0 0.272-0.035 0.35-0.105s0.128-0.186 0.148-0.348h0.394zM16.918 28.78c0 0.223-0.039 0.419-0.116 0.588-0.077 0.168-0.188 0.297-0.331 0.388-0.143 0.090-0.307 0.134-0.494 0.134-0.184 0-0.349-0.045-0.494-0.134-0.144-0.091-0.255-0.219-0.334-0.386-0.078-0.167-0.118-0.359-0.119-0.576v-0.128c0-0.222 0.039-0.418 0.117-0.588 0.079-0.17 0.19-0.299 0.333-0.389 0.144-0.091 0.308-0.136 0.494-0.136s0.349 0.045 0.492 0.134c0.144 0.088 0.255 0.217 0.333 0.384s0.118 0.361 0.119 0.583v0.127zM16.523 28.662c0-0.252-0.048-0.445-0.144-0.58-0.095-0.134-0.23-0.202-0.405-0.202-0.171 0-0.305 0.067-0.402 0.202-0.096 0.133-0.145 0.322-0.147 0.567v0.131c0 0.25 0.048 0.443 0.145 0.58s0.233 0.205 0.406 0.205c0.175 0 0.309-0.067 0.403-0.2 0.095-0.133 0.142-0.328 0.142-0.584v-0.119z"></path>
</symbol>
</defs>
</svg>
